SplineFontDB: 3.2
FontName: Trinity.Bold.Italic
FullName: Trinity.Bold.Italic
FamilyName: Trinity
Weight: Bold
Copyright: (c) RISC OS Developments Ltd, released under Apache License 2.0
Version: 1
ItalicAngle: 0
UnderlinePosition: 0
UnderlineWidth: 0
Ascent: 400
Descent: 100
InvalidEm: 0
LayerCount: 2
Layer: 0 0 "Back" 1
Layer: 1 0 "Fore" 0
OS2Version: 0
OS2_WeightWidthSlopeOnly: 0
OS2_UseTypoMetrics: 0
CreationTime: 1622737881
ModificationTime: 1622737882
OS2TypoAscent: 0
OS2TypoAOffset: 1
OS2TypoDescent: 0
OS2TypoDOffset: 1
OS2TypoLinegap: 0
OS2WinAscent: 0
OS2WinAOffset: 1
OS2WinDescent: 0
OS2WinDOffset: 1
HheadAscent: 0
HheadAOffset: 1
HheadDescent: 0
HheadDOffset: 1
OS2Vendor: 'PfEd'
Lookup: 258 0 0 "'kern' Horizontal Kerning in Latin lookup 0" { "'kern' Horizontal Kerning in Latin lookup 0 subtable"  } ['kern' ('latn' <'dflt' > ) ]
DEI: 91125
Encoding: Custom
UnicodeInterp: none
NameList: AGL For New Fonts
DisplaySize: -24
AntiAlias: 1
FitToEm: 0
BeginChars: 480 406

StartChar: exclam
Encoding: 33 33 32
Width: 194
VWidth: 0
Flags: HMW
LayerCount: 2
Fore
SplineSet
43 4 m 0
 29 18 29 42 44 56 c 0
 59 71 82 71 97 56 c 0
 111 42 111 18 96 4 c 0
 82 -11 58 -11 43 4 c 0
173 329 m 0
 210 292 147 240 98 98 c 0
 82 103 l 0
 111 225 104 304 126 326 c 0
 141 341 161 341 173 329 c 0
EndSplineSet
EndChar

StartChar: quoteleft
Encoding: 34 8216 33
Width: 166
VWidth: 0
Flags: HMW
LayerCount: 2
Fore
SplineSet
152 339 m 0
 160 327 l 0
 144 318 128 308 117 295 c 0
 103 280 97 267 118 250 c 0
 142 230 142 208 126 192 c 0
 113 179 87 179 73 193 c 0
 50 217 56 257 90 293 c 0
 105 310 129 328 152 339 c 0
EndSplineSet
EndChar

StartChar: quoteright
Encoding: 35 8217 34
Width: 166
VWidth: 0
Flags: HMW
LayerCount: 2
Fore
SplineSet
40 194 m 0
 56 203 73 213 85 225 c 0
 99 239 102 251 80 269 c 0
 58 287 58 313 74 329 c 0
 87 342 113 342 127 328 c 0
 148 307 146 260 111 226 c 0
 95 209 71 193 48 182 c 0
 40 194 l 0
EndSplineSet
EndChar

StartChar: quotedblleft
Encoding: 36 8220 35
Width: 250
VWidth: 0
Flags: HMW
LayerCount: 2
Fore
SplineSet
170 193 m 0
 147 217 153 257 187 293 c 0
 202 310 226 328 249 339 c 0
 257 327 l 0
 241 318 225 308 214 295 c 0
 200 280 194 267 215 250 c 0
 239 230 239 208 223 192 c 0
 210 179 184 179 170 193 c 0
43 193 m 0
 20 217 26 257 60 293 c 0
 75 310 99 328 122 339 c 0
 130 327 l 0
 114 318 98 308 87 295 c 0
 73 280 67 267 88 250 c 0
 112 230 112 208 96 192 c 0
 83 179 57 179 43 193 c 0
EndSplineSet
EndChar

StartChar: quotedblright
Encoding: 37 8221 36
Width: 250
VWidth: 0
Flags: HMW
LayerCount: 2
Fore
SplineSet
36 182 m 0
 28 194 l 0
 44 203 61 213 73 225 c 0
 87 239 90 251 68 269 c 0
 46 287 46 313 62 329 c 0
 75 342 101 342 115 328 c 0
 136 307 134 260 99 226 c 0
 83 209 59 193 36 182 c 0
162 182 m 0
 154 194 l 0
 170 203 187 213 199 225 c 0
 213 239 216 251 194 269 c 0
 172 287 172 313 188 329 c 0
 201 342 227 342 241 328 c 0
 262 307 260 260 225 226 c 0
 209 209 185 193 162 182 c 0
EndSplineSet
EndChar

StartChar: quotedblbase
Encoding: 38 8222 37
Width: 250
VWidth: 0
Flags: HMW
LayerCount: 2
Fore
SplineSet
184 56 m 0
 205 35 203 -13 168 -47 c 0
 152 -64 128 -80 105 -91 c 0
 97 -79 l 0
 113 -70 130 -60 142 -48 c 0
 156 -34 159 -21 137 -3 c 0
 115 15 115 41 131 57 c 0
 144 70 170 70 184 56 c 0
58 56 m 0
 79 35 77 -13 42 -47 c 0
 26 -64 2 -80 -21 -91 c 0
 -29 -79 l 0
 -13 -70 4 -60 16 -48 c 0
 30 -34 33 -21 11 -3 c 0
 -11 15 -11 41 5 57 c 0
 18 70 44 70 58 56 c 0
EndSplineSet
EndChar

StartChar: asciitilde
Encoding: 39 126 38
Width: 285
VWidth: 0
Flags: HMW
LayerCount: 2
Fore
SplineSet
7 108 m 0
 52 185 89 175 143 146 c 0
 195 116 218 119 252 171 c 0
 271 139 l 0
 241 78 190 69 138 103 c 0
 86 130 57 132 22 74 c 0
 7 108 l 0
EndSplineSet
EndChar

StartChar: parenleft
Encoding: 40 40 39
Width: 166
VWidth: 0
Flags: HMW
LayerCount: 2
Fore
SplineSet
80 -90 m 0
 -19 50 -17 214 163 338 c 0
 170 329 l 0
 88 258 65 163 61 101 c 0
 53 -10 64 -35 91 -82 c 0
 80 -90 l 0
EndSplineSet
EndChar

StartChar: parenright
Encoding: 41 41 40
Width: 166
VWidth: 0
Flags: HMW
LayerCount: 2
Fore
SplineSet
-22 -82 m 0
 60 -11 83 85 87 147 c 0
 95 258 83 282 56 329 c 0
 68 338 l 0
 167 198 165 34 -15 -90 c 0
 -22 -82 l 0
EndSplineSet
EndChar

StartChar: asterisk
Encoding: 42 42 41
Width: 250
VWidth: 0
Flags: HMW
LayerCount: 2
Fore
SplineSet
223 265 m 0
 220 252 202 241 183 241 c 0
 163 242 146 235 136 229 c 0
 146 223 163 216 183 217 c 0
 202 217 220 206 223 193 c 0
 227 180 219 165 205 162 c 0
 191 158 173 169 165 186 c 0
 156 204 141 215 131 221 c 0
 131 209 133 191 144 174 c 0
 154 158 154 137 144 127 c 0
 135 117 118 117 108 127 c 0
 98 137 98 158 108 174 c 0
 119 191 121 209 121 221 c 0
 111 215 96 204 87 186 c 0
 79 169 61 158 47 162 c 0
 33 165 25 180 29 193 c 0
 32 206 50 217 69 217 c 0
 89 216 106 223 116 229 c 0
 106 235 89 242 69 241 c 0
 50 241 32 252 29 265 c 0
 25 278 33 293 47 296 c 0
 61 300 79 289 87 272 c 0
 96 254 111 243 121 237 c 0
 121 249 119 267 108 284 c 0
 98 300 98 321 108 331 c 0
 118 341 135 341 144 331 c 0
 154 321 154 300 144 284 c 0
 133 267 131 249 131 237 c 0
 141 243 156 254 165 272 c 0
 173 289 191 300 205 296 c 0
 219 293 227 278 223 265 c 0
EndSplineSet
EndChar

StartChar: sterling
Encoding: 43 163 42
Width: 250
VWidth: 0
Flags: HMW
LayerCount: 2
Fore
SplineSet
7 16 m 0
 17 6 38 8 48 18 c 0
 56 26 58 35 58 42 c 0
 43 60 18 62 8 53 c 0
 -3 42 -2 25 7 16 c 0
77 23 m 0
 62 -13 13 -13 -6 6 c 0
 -20 19 -21 50 -4 67 c 0
 14 85 48 83 64 75 c 0
 71 150 l 0
 18 150 l 0
 23 182 l 0
 76 182 l 0
 84 238 105 281 134 310 c 0
 170 346 215 345 240 320 c 0
 258 302 255 277 244 266 c 0
 231 253 213 252 202 263 c 0
 190 275 202 300 202 307 c 0
 202 319 184 324 174 314 c 0
 154 294 149 223 138 182 c 0
 197 182 l 0
 192 150 l 0
 131 150 l 0
 130 128 112 89 97 63 c 0
 148 34 185 41 202 76 c 0
 214 76 l 0
 211 55 201 26 186 12 c 0
 153 -21 106 -8 77 23 c 0
EndSplineSet
EndChar

StartChar: comma
Encoding: 44 44 43
Width: 125
VWidth: 0
Flags: HMW
LayerCount: 2
Fore
SplineSet
3 -91 m 0
 -5 -79 l 0
 11 -70 28 -60 40 -48 c 0
 54 -34 57 -22 35 -4 c 0
 13 14 13 41 29 57 c 0
 42 70 68 70 82 56 c 0
 103 35 101 -13 66 -47 c 0
 50 -64 26 -80 3 -91 c 0
EndSplineSet
EndChar

StartChar: hyphen
Encoding: 45 45 44
Width: 166
VWidth: 0
Flags: HMW
LayerCount: 2
Fore
SplineSet
28 141 m 0
 150 141 l 0
 139 84 l 0
 17 84 l 0
 28 141 l 0
EndSplineSet
EndChar

StartChar: period
Encoding: 46 46 45
Width: 125
VWidth: 0
Flags: HMW
LayerCount: 2
Fore
SplineSet
22 56 m 0
 37 71 60 71 75 56 c 0
 89 42 89 18 74 4 c 0
 60 -11 36 -11 21 4 c 0
 7 18 7 42 22 56 c 0
EndSplineSet
EndChar

StartChar: zero
Encoding: 48 48 47
Width: 250
VWidth: 0
Flags: HMW
LayerCount: 2
Fore
SplineSet
60 17 m 0
 73 4 93 6 105 18 c 0
 130 43 151 119 161 160 c 0
 181 239 197 296 179 314 c 0
 166 327 146 325 134 313 c 0
 109 288 88 212 78 171 c 0
 58 92 42 35 60 17 c 0
160 27 m 0
 119 -14 62 -17 32 13 c 0
 -26 71 7 234 78 304 c 0
 119 345 176 348 206 318 c 0
 264 260 231 97 160 27 c 0
EndSplineSet
EndChar

StartChar: one
Encoding: 49 49 48
Width: 250
VWidth: 0
Flags: HMW
LayerCount: 2
Fore
SplineSet
129 49 m 0
 119 13 137 11 170 11 c 0
 170 0 l 0
 3 0 l 0
 3 11 l 0
 44 11 55 20 66 60 c 0
 127 283 l 0
 133 303 121 307 77 302 c 0
 77 313 l 0
 208 338 l 0
 129 49 l 0
EndSplineSet
EndChar

StartChar: two
Encoding: 50 50 49
Width: 250
VWidth: 0
Flags: HMW
LayerCount: 2
Fore
SplineSet
145 55 m 0
 159 55 176 60 192 92 c 0
 205 92 l 0
 168 0 l 0
 -14 0 l 0
 -14 11 l 0
 101 129 l 0
 151 180 176 245 143 279 c 0
 117 305 62 288 42 247 c 0
 33 253 l 0
 40 269 54 293 68 307 c 0
 106 345 164 349 198 315 c 0
 228 285 238 221 168 151 c 0
 144 126 83 81 52 55 c 0
 145 55 l 0
EndSplineSet
EndChar

StartChar: three
Encoding: 51 51 50
Width: 250
VWidth: 0
Flags: HMW
LayerCount: 2
Fore
SplineSet
62 170 m 0
 64 182 l 0
 86 187 123 194 141 212 c 0
 163 235 169 270 148 291 c 0
 122 316 83 300 59 263 c 0
 49 270 l 0
 89 341 167 355 203 319 c 0
 229 293 230 247 202 219 c 0
 189 206 179 201 162 192 c 0
 211 175 216 89 166 39 c 0
 108 -19 25 -14 1 10 c 0
 -12 23 -11 45 0 56 c 0
 8 64 29 65 42 52 c 0
 53 42 55 25 69 16 c 0
 79 9 108 16 119 28 c 0
 145 53 150 123 123 150 c 0
 104 169 90 170 62 170 c 0
EndSplineSet
EndChar

StartChar: four
Encoding: 52 52 51
Width: 250
VWidth: 0
Flags: HMW
LayerCount: 2
Fore
SplineSet
96 0 m 0
 115 72 l 0
 -8 72 l 0
 6 124 l 0
 219 338 l 0
 249 338 l 0
 190 121 l 0
 221 121 l 0
 208 72 l 0
 176 72 l 0
 157 0 l 0
 96 0 l 0
165 255 m 0
 29 121 l 0
 129 121 l 0
 165 255 l 0
EndSplineSet
EndChar

StartChar: five
Encoding: 53 53 52
Width: 250
VWidth: 0
Flags: HMW
LayerCount: 2
Fore
SplineSet
36 179 m 0
 102 331 l 0
 241 331 l 0
 221 271 l 0
 97 271 l 0
 81 234 l 0
 124 227 149 218 171 196 c 0
 222 145 201 72 166 37 c 0
 110 -19 26 -13 3 9 c 0
 -7 20 -12 40 3 55 c 0
 13 65 29 67 42 54 c 0
 57 40 51 30 70 18 c 0
 87 8 112 20 126 34 c 0
 156 64 156 117 127 146 c 0
 99 174 65 179 36 179 c 0
EndSplineSet
EndChar

StartChar: six
Encoding: 54 54 53
Width: 250
VWidth: 0
Flags: HMW
LayerCount: 2
Fore
SplineSet
72 18 m 0
 81 9 96 9 108 21 c 0
 132 44 169 157 143 183 c 0
 135 191 119 191 101 181 c 0
 56 78 56 34 72 18 c 0
39 12 m 0
 3 48 -13 164 90 266 c 0
 139 315 199 342 250 338 c 0
 252 330 l 0
 190 308 139 261 114 202 c 0
 132 212 165 214 188 190 c 0
 230 148 210 64 168 24 c 0
 126 -19 62 -12 39 12 c 0
EndSplineSet
EndChar

StartChar: seven
Encoding: 55 55 54
Width: 250
VWidth: 0
Flags: HMW
LayerCount: 2
Fore
SplineSet
98 271 m 0
 83 271 62 268 45 231 c 0
 32 231 l 0
 76 331 l 0
 260 331 l 0
 71 0 l 0
 26 0 l 0
 189 271 l 0
 98 271 l 0
EndSplineSet
EndChar

StartChar: eight
Encoding: 56 56 55
Width: 250
VWidth: 0
Flags: HMW
LayerCount: 2
Fore
SplineSet
175 311 m 0
 162 323 138 323 125 310 c 0
 103 288 104 236 154 196 c 0
 203 232 197 289 175 311 c 0
134 24 m 0
 160 50 163 102 105 155 c 0
 43 124 37 51 64 24 c 0
 82 5 114 4 134 24 c 0
20 24 m 0
 -5 49 -5 99 27 131 c 0
 44 148 67 158 93 168 c 0
 51 204 43 270 85 312 c 0
 118 346 181 347 216 312 c 0
 245 283 240 238 214 212 c 0
 199 197 185 191 165 183 c 0
 212 142 221 68 178 25 c 0
 132 -21 59 -15 20 24 c 0
EndSplineSet
EndChar

StartChar: nine
Encoding: 57 57 56
Width: 250
VWidth: 0
Flags: HMW
LayerCount: 2
Fore
SplineSet
97 148 m 0
 107 138 119 138 143 144 c 0
 182 214 190 298 174 314 c 0
 164 323 147 323 135 311 c 0
 111 288 76 169 97 148 c 0
205 316 m 0
 259 262 236 142 165 71 c 0
 119 25 65 5 -1 -7 c 0
 -6 4 l 0
 69 33 107 73 136 127 c 0
 110 113 77 112 52 138 c 0
 10 180 34 266 75 307 c 0
 112 344 172 349 205 316 c 0
EndSplineSet
EndChar

StartChar: colon
Encoding: 58 58 57
Width: 166
VWidth: 0
Flags: HMW
LayerCount: 2
Fore
SplineSet
136 166 m 0
 121 151 97 151 83 166 c 0
 68 180 68 204 82 218 c 0
 97 233 120 233 135 218 c 0
 150 204 150 180 136 166 c 0
90 56 m 0
 104 42 104 18 89 4 c 0
 75 -11 51 -11 36 4 c 0
 22 18 22 42 37 56 c 0
 52 71 75 71 90 56 c 0
EndSplineSet
EndChar

StartChar: semicolon
Encoding: 59 59 58
Width: 166
VWidth: 0
Flags: HMW
LayerCount: 2
Fore
SplineSet
136 218 m 0
 150 204 150 180 135 166 c 0
 121 151 97 151 82 166 c 0
 68 180 68 204 83 218 c 0
 98 233 121 233 136 218 c 0
7 -79 m 0
 23 -70 40 -60 52 -48 c 0
 66 -34 69 -22 47 -4 c 0
 25 14 25 41 41 57 c 0
 54 70 80 70 94 56 c 0
 115 35 113 -13 78 -47 c 0
 62 -64 38 -80 15 -91 c 0
 7 -79 l 0
EndSplineSet
EndChar

StartChar: quotesingle
Encoding: 60 39 59
Width: 139
VWidth: 0
Flags: HMW
LayerCount: 2
Fore
SplineSet
71 314 m 0
 73 353 120 352 134 338 c 0
 149 323 151 304 141 287 c 0
 83 184 l 0
 63 191 l 0
 71 314 l 0
EndSplineSet
EndChar

StartChar: equal
Encoding: 61 61 60
Width: 285
VWidth: 0
Flags: HMW
LayerCount: 2
Fore
SplineSet
269 58 m 0
 17 58 l 0
 17 104 l 0
 269 104 l 0
 269 58 l 0
269 201 m 0
 269 155 l 0
 17 155 l 0
 17 201 l 0
 269 201 l 0
EndSplineSet
EndChar

StartChar: quotedbl
Encoding: 62 34 61
Width: 277
VWidth: 0
Flags: HMW
LayerCount: 2
Fore
SplineSet
269 287 m 0
 211 184 l 0
 191 191 l 0
 199 314 l 0
 201 353 248 352 262 338 c 0
 277 323 279 304 269 287 c 0
79 314 m 0
 81 353 128 352 142 338 c 0
 157 323 159 304 149 287 c 0
 91 184 l 0
 71 191 l 0
 79 314 l 0
EndSplineSet
EndChar

StartChar: question
Encoding: 63 63 62
Width: 250
VWidth: 0
Flags: HMW
LayerCount: 2
Fore
SplineSet
103 56 m 0
 117 42 117 18 102 4 c 0
 88 -11 64 -11 49 4 c 0
 35 18 35 42 50 56 c 0
 65 71 88 71 103 56 c 0
72 249 m 0
 58 263 60 293 82 315 c 0
 110 343 180 348 215 313 c 0
 241 287 239 238 205 204 c 0
 179 178 151 173 120 142 c 0
 109 131 100 110 98 98 c 0
 85 103 l 0
 87 130 98 162 126 189 c 0
 184 246 176 300 159 317 c 0
 144 331 110 320 110 303 c 0
 110 294 134 267 115 249 c 0
 104 237 83 237 72 249 c 0
EndSplineSet
EndChar

StartChar: acute
Encoding: 64 180 63
Width: 166
VWidth: 0
Flags: HMW
LayerCount: 2
Fore
SplineSet
157 331 m 0
 172 346 190 342 197 335 c 0
 208 324 204 304 188 295 c 0
 109 255 l 0
 84 255 l 0
 157 331 l 0
EndSplineSet
EndChar

StartChar: A
Encoding: 65 65 64
Width: 333
VWidth: 0
Flags: HMW
LayerCount: 2
Fore
SplineSet
193 56 m 0
 188 99 l 0
 76 99 l 0
 44 47 l 0
 37 35 34 11 70 11 c 0
 70 0 l 0
 -26 0 l 0
 -26 11 l 0
 -11 11 1 18 16 43 c 0
 198 338 l 0
 212 338 l 0
 262 51 l 0
 268 14 275 11 301 11 c 0
 301 0 l 0
 157 0 l 0
 157 11 l 0
 188 11 198 21 193 56 c 0
185 120 m 0
 163 243 l 0
 88 120 l 0
 185 120 l 0
EndSplineSet
EndChar

StartChar: B
Encoding: 66 66 65
Width: 333
VWidth: 0
Flags: HMW
LayerCount: 2
Fore
SplineSet
91 288 m 0
 95 305 95 320 61 320 c 0
 61 331 l 0
 225 331 l 0
 250 331 272 324 290 306 c 0
 311 285 319 236 288 204 c 0
 271 187 241 177 218 172 c 0
 234 168 249 163 261 150 c 0
 294 117 285 69 253 36 c 0
 231 15 188 0 153 0 c 0
 -12 0 l 0
 -12 11 l 0
 12 11 19 19 25 44 c 0
 91 288 l 0
174 181 m 0
 186 181 202 187 214 198 c 0
 242 226 244 285 224 305 c 0
 211 317 184 317 174 307 c 0
 165 298 165 293 161 279 c 0
 135 181 l 0
 174 181 l 0
118 18 m 0
 138 18 160 17 180 37 c 0
 213 69 216 128 195 149 c 0
 187 157 173 163 160 163 c 0
 130 163 l 0
 100 50 l 0
 96 33 96 18 118 18 c 0
EndSplineSet
EndChar

StartChar: C
Encoding: 67 67 66
Width: 333
VWidth: 0
Flags: HMW
LayerCount: 2
Fore
SplineSet
279 326 m 0
 296 320 309 325 312 338 c 0
 330 338 l 0
 302 219 l 0
 286 219 l 0
 286 262 284 286 264 306 c 0
 241 328 194 323 156 284 c 0
 97 227 60 86 109 38 c 0
 148 -1 226 22 260 78 c 0
 276 66 l 0
 225 -20 104 -28 43 33 c 0
 -18 95 19 219 73 273 c 0
 156 355 232 342 279 326 c 0
EndSplineSet
EndChar

StartChar: D
Encoding: 68 68 67
Width: 361
VWidth: 0
Flags: HMW
LayerCount: 2
Fore
SplineSet
60 320 m 0
 60 331 l 0
 194 331 l 0
 245 331 288 316 313 291 c 0
 369 235 352 121 289 58 c 0
 248 17 196 0 125 0 c 0
 -16 0 l 0
 -16 11 l 0
 10 11 17 19 23 44 c 0
 90 288 l 0
 94 305 94 320 60 320 c 0
97 50 m 0
 93 33 86 18 119 18 c 0
 158 18 190 26 214 50 c 0
 273 109 296 254 253 297 c 0
 239 311 218 315 200 315 c 0
 175 315 168 307 162 282 c 0
 97 50 l 0
EndSplineSet
EndChar

StartChar: E
Encoding: 69 69 68
Width: 333
VWidth: 0
Flags: HMW
LayerCount: 2
Fore
SplineSet
97 50 m 0
 93 33 90 18 123 18 c 0
 207 18 224 35 241 52 c 0
 256 67 265 82 272 95 c 0
 288 95 l 0
 259 0 l 0
 -14 0 l 0
 -14 11 l 0
 10 11 17 19 23 44 c 0
 90 288 l 0
 94 305 94 320 60 320 c 0
 60 331 l 0
 323 331 l 0
 301 232 l 0
 286 232 l 0
 286 268 283 280 269 294 c 0
 255 308 237 313 227 313 c 0
 199 313 l 0
 171 313 172 309 165 295 c 0
 133 181 l 0
 164 181 l 0
 186 181 201 180 215 194 c 0
 228 207 233 221 236 231 c 0
 253 231 l 0
 216 95 l 0
 203 95 l 0
 203 124 202 143 194 151 c 0
 183 163 162 163 154 163 c 0
 128 163 l 0
 97 50 l 0
EndSplineSet
EndChar

StartChar: F
Encoding: 70 70 69
Width: 333
VWidth: 0
Flags: HMW
LayerCount: 2
Fore
SplineSet
215 194 m 0
 228 207 233 221 236 231 c 0
 253 231 l 0
 216 95 l 0
 203 95 l 0
 203 124 202 143 194 151 c 0
 183 163 162 163 154 163 c 0
 132 163 l 0
 100 43 l 0
 96 26 96 11 129 11 c 0
 129 0 l 0
 -10 0 l 0
 -10 11 l 0
 14 11 21 19 27 44 c 0
 94 288 l 0
 98 305 98 320 64 320 c 0
 64 331 l 0
 323 331 l 0
 301 232 l 0
 286 232 l 0
 286 268 283 280 269 294 c 0
 255 308 239 313 227 313 c 0
 203 313 l 0
 175 313 176 309 169 295 c 0
 137 181 l 0
 164 181 l 0
 186 181 201 180 215 194 c 0
EndSplineSet
EndChar

StartChar: G
Encoding: 71 71 70
Width: 361
VWidth: 0
Flags: HMW
LayerCount: 2
Fore
SplineSet
315 119 m 0
 287 19 l 0
 179 -18 96 -17 44 35 c 0
 -17 95 13 215 78 279 c 0
 144 346 221 343 279 332 c 0
 288 330 312 315 324 338 c 0
 342 338 l 0
 316 227 l 0
 300 227 l 0
 300 257 296 286 279 304 c 0
 256 326 206 334 154 282 c 0
 80 209 67 74 112 29 c 0
 138 3 187 5 219 26 c 0
 246 120 l 0
 250 137 247 152 213 152 c 0
 213 163 l 0
 350 163 l 0
 350 152 l 0
 328 152 321 144 315 119 c 0
EndSplineSet
EndChar

StartChar: H
Encoding: 72 72 71
Width: 389
VWidth: 0
Flags: HMW
LayerCount: 2
Fore
SplineSet
173 11 m 0
 199 11 212 19 218 44 c 0
 249 159 l 0
 131 159 l 0
 100 43 l 0
 96 26 96 11 129 11 c 0
 129 0 l 0
 -12 0 l 0
 -12 11 l 0
 14 11 21 19 27 44 c 0
 94 288 l 0
 98 305 98 320 64 320 c 0
 64 331 l 0
 211 331 l 0
 211 320 l 0
 180 320 173 312 167 287 c 0
 138 183 l 0
 255 183 l 0
 285 288 l 0
 289 305 289 320 255 320 c 0
 255 331 l 0
 396 331 l 0
 396 320 l 0
 371 320 364 312 358 287 c 0
 291 43 l 0
 287 26 287 11 320 11 c 0
 320 0 l 0
 173 0 l 0
 173 11 l 0
EndSplineSet
EndChar

StartChar: I
Encoding: 73 73 72
Width: 194
VWidth: 0
Flags: HMW
LayerCount: 2
Fore
SplineSet
28 44 m 0
 95 288 l 0
 99 305 99 320 65 320 c 0
 65 331 l 0
 206 331 l 0
 206 320 l 0
 181 320 174 312 168 287 c 0
 101 43 l 0
 97 26 97 11 130 11 c 0
 130 0 l 0
 -11 0 l 0
 -11 11 l 0
 15 11 22 19 28 44 c 0
EndSplineSet
EndChar

StartChar: J
Encoding: 74 74 73
Width: 250
VWidth: 0
Flags: HMW
LayerCount: 2
Fore
SplineSet
28 -22 m 0
 28 -31 46 -33 58 -21 c 0
 63 -16 67 -6 73 13 c 0
 149 288 l 0
 153 305 153 320 119 320 c 0
 119 331 l 0
 260 331 l 0
 260 320 l 0
 235 320 228 312 222 287 c 0
 149 26 l 0
 144 9 136 -6 124 -18 c 0
 86 -57 17 -57 -11 -30 c 0
 -24 -16 -28 13 -14 27 c 0
 -2 39 17 39 30 27 c 0
 52 5 28 -15 28 -22 c 0
EndSplineSet
EndChar

StartChar: K
Encoding: 75 75 74
Width: 333
VWidth: 0
Flags: HMW
LayerCount: 2
Fore
SplineSet
-16 11 m 0
 10 11 17 19 23 44 c 0
 90 288 l 0
 94 305 94 320 60 320 c 0
 60 331 l 0
 201 331 l 0
 201 320 l 0
 176 320 169 312 163 287 c 0
 131 171 l 0
 248 277 l 0
 280 306 265 320 239 320 c 0
 239 331 l 0
 343 331 l 0
 343 320 l 0
 331 320 317 313 304 302 c 0
 185 193 l 0
 262 29 l 0
 271 13 282 11 295 11 c 0
 295 0 l 0
 160 0 l 0
 160 11 l 0
 186 11 196 21 185 44 c 0
 127 157 l 0
 96 43 l 0
 92 26 92 11 125 11 c 0
 125 0 l 0
 -16 0 l 0
 -16 11 l 0
EndSplineSet
EndChar

StartChar: L
Encoding: 76 76 75
Width: 305
VWidth: 0
Flags: HMW
LayerCount: 2
Fore
SplineSet
-11 11 m 0
 15 11 22 19 28 44 c 0
 95 288 l 0
 99 305 99 320 65 320 c 0
 65 331 l 0
 213 331 l 0
 213 320 l 0
 181 320 174 312 168 287 c 0
 103 50 l 0
 99 33 93 18 126 18 c 0
 159 18 l 0
 188 18 222 29 245 52 c 0
 259 66 272 83 278 95 c 0
 292 95 l 0
 263 0 l 0
 -11 0 l 0
 -11 11 l 0
EndSplineSet
EndChar

StartChar: M
Encoding: 77 77 76
Width: 444
VWidth: 0
Flags: HMW
LayerCount: 2
Fore
SplineSet
378 11 m 0
 378 0 l 0
 230 0 l 0
 230 11 l 0
 263 11 270 19 276 44 c 0
 340 272 l 0
 155 -6 l 0
 140 -6 l 0
 108 268 l 0
 49 60 l 0
 40 29 53 11 83 11 c 0
 83 0 l 0
 -15 0 l 0
 -15 11 l 0
 -6 11 13 20 20 43 c 0
 93 288 l 0
 97 305 97 320 61 320 c 0
 61 331 l 0
 168 331 l 0
 195 93 l 0
 350 331 l 0
 454 331 l 0
 454 320 l 0
 429 320 422 312 416 287 c 0
 349 43 l 0
 345 26 345 11 378 11 c 0
EndSplineSet
EndChar

StartChar: N
Encoding: 78 78 77
Width: 361
VWidth: 0
Flags: HMW
LayerCount: 2
Fore
SplineSet
370 320 m 0
 361 320 342 311 335 288 c 0
 248 -9 l 0
 233 -9 l 0
 108 263 l 0
 50 60 l 0
 41 29 54 11 84 11 c 0
 84 0 l 0
 -14 0 l 0
 -14 11 l 0
 -5 11 14 20 21 43 c 0
 89 271 l 0
 100 307 85 320 55 320 c 0
 55 331 l 0
 150 331 l 0
 256 100 l 0
 307 271 l 0
 315 302 302 320 272 320 c 0
 272 331 l 0
 370 331 l 0
 370 320 l 0
EndSplineSet
EndChar

StartChar: O
Encoding: 79 79 78
Width: 361
VWidth: 0
Flags: HMW
LayerCount: 2
Fore
SplineSet
166 299 m 0
 116 249 53 68 101 21 c 0
 122 0 164 6 190 32 c 0
 240 82 303 263 255 310 c 0
 234 331 192 325 166 299 c 0
310 305 m 0
 367 249 345 131 268 54 c 0
 208 -6 104 -33 46 26 c 0
 -11 82 11 200 88 277 c 0
 148 337 252 364 310 305 c 0
EndSplineSet
EndChar

StartChar: P
Encoding: 80 80 79
Width: 305
VWidth: 0
Flags: HMW
LayerCount: 2
Fore
SplineSet
208 190 m 0
 229 211 247 275 220 302 c 0
 203 319 173 319 166 292 c 0
 133 175 l 0
 161 174 189 171 208 190 c 0
129 158 m 0
 98 43 l 0
 94 26 94 11 127 11 c 0
 127 0 l 0
 -14 0 l 0
 -14 11 l 0
 12 11 19 19 25 44 c 0
 92 288 l 0
 96 305 96 320 62 320 c 0
 62 331 l 0
 203 331 l 0
 254 331 269 322 282 310 c 0
 311 282 314 228 276 190 c 0
 238 151 175 155 129 158 c 0
EndSplineSet
EndChar

StartChar: Q
Encoding: 81 81 80
Width: 361
VWidth: 0
Flags: HMW
LayerCount: 2
Fore
SplineSet
166 299 m 0
 116 249 53 68 101 21 c 0
 122 0 164 6 190 32 c 0
 240 82 303 263 255 310 c 0
 234 331 192 325 166 299 c 0
46 26 m 0
 -11 82 11 200 88 277 c 0
 148 337 252 364 310 305 c 0
 367 249 345 131 268 54 c 0
 220 6 163 -7 127 -7 c 0
 100 -31 l 0
 149 -31 215 -56 234 -56 c 0
 258 -56 279 -47 303 -19 c 0
 315 -26 l 0
 292 -66 263 -100 193 -100 c 0
 114 -100 115 -58 23 -93 c 0
 17 -79 l 0
 102 -5 l 0
 80 0 63 9 46 26 c 0
EndSplineSet
EndChar

StartChar: R
Encoding: 82 82 81
Width: 333
VWidth: 0
Flags: HMW
LayerCount: 2
Fore
SplineSet
193 314 m 0
 175 314 168 306 162 281 c 0
 133 178 l 0
 153 178 l 0
 167 178 194 180 211 197 c 0
 235 221 245 278 220 303 c 0
 212 311 199 314 193 314 c 0
211 165 m 0
 252 44 l 0
 262 19 269 11 295 11 c 0
 295 0 l 0
 197 0 l 0
 144 161 l 0
 129 161 l 0
 97 43 l 0
 93 26 93 11 126 11 c 0
 126 0 l 0
 -15 0 l 0
 -15 11 l 0
 11 11 18 19 24 44 c 0
 91 288 l 0
 95 305 95 320 61 320 c 0
 61 331 l 0
 224 331 l 0
 250 331 272 324 289 307 c 0
 316 280 314 229 285 200 c 0
 267 181 234 168 211 165 c 0
EndSplineSet
EndChar

StartChar: S
Encoding: 83 83 82
Width: 278
VWidth: 0
Flags: HMW
LayerCount: 2
Fore
SplineSet
38 103 m 0
 38 73 45 48 60 32 c 0
 88 5 128 3 152 27 c 0
 164 40 178 69 163 99 c 0
 154 118 125 135 95 165 c 0
 36 222 53 279 85 310 c 0
 120 347 172 342 208 328 c 0
 224 323 241 325 246 338 c 0
 262 338 l 0
 240 233 l 0
 226 235 l 0
 226 259 220 287 202 305 c 0
 183 323 151 327 130 306 c 0
 110 286 108 251 138 222 c 0
 159 201 182 184 196 171 c 0
 240 127 238 59 203 25 c 0
 166 -12 104 -15 54 5 c 0
 33 13 25 11 20 -7 c 0
 3 -7 l 0
 24 105 l 0
 38 103 l 0
EndSplineSet
EndChar

StartChar: T
Encoding: 84 84 83
Width: 305
VWidth: 0
Flags: HMW
LayerCount: 2
Fore
SplineSet
38 239 m 0
 25 242 l 0
 44 331 l 0
 316 331 l 0
 297 232 l 0
 283 232 l 0
 283 249 280 281 265 296 c 0
 249 312 234 313 214 313 c 0
 140 43 l 0
 136 26 135 11 177 11 c 0
 177 0 l 0
 20 0 l 0
 20 11 l 0
 55 11 61 19 67 44 c 0
 141 313 l 0
 97 312 82 297 66 282 c 0
 53 269 44 252 38 239 c 0
EndSplineSet
EndChar

StartChar: U
Encoding: 85 85 84
Width: 361
VWidth: 0
Flags: HMW
LayerCount: 2
Fore
SplineSet
39 125 m 0
 85 288 l 0
 89 305 89 320 55 320 c 0
 55 331 l 0
 201 331 l 0
 201 320 l 0
 171 320 164 312 158 287 c 0
 104 99 l 0
 95 67 97 52 110 39 c 0
 131 18 183 9 219 45 c 0
 239 65 250 93 260 127 c 0
 302 273 l 0
 311 304 298 320 266 320 c 0
 266 331 l 0
 368 331 l 0
 368 320 l 0
 359 320 338 311 331 288 c 0
 282 124 l 0
 271 86 253 46 230 24 c 0
 186 -20 90 -15 53 24 c 0
 26 49 31 96 39 125 c 0
EndSplineSet
EndChar

StartChar: V
Encoding: 86 86 85
Width: 333
VWidth: 0
Flags: HMW
LayerCount: 2
Fore
SplineSet
273 278 m 0
 287 301 278 320 248 320 c 0
 248 331 l 0
 346 331 l 0
 346 320 l 0
 326 320 314 296 297 271 c 0
 118 -9 l 0
 100 -9 l 0
 58 288 l 0
 54 317 40 320 24 320 c 0
 24 331 l 0
 168 331 l 0
 168 320 l 0
 136 320 128 311 131 287 c 0
 156 93 l 0
 273 278 l 0
EndSplineSet
EndChar

StartChar: W
Encoding: 87 87 86
Width: 444
VWidth: 0
Flags: HMW
LayerCount: 2
Fore
SplineSet
219 272 m 0
 213 318 205 320 185 320 c 0
 185 331 l 0
 313 331 l 0
 313 320 l 0
 288 320 278 308 283 271 c 0
 301 108 l 0
 384 275 l 0
 400 306 386 320 360 320 c 0
 360 331 l 0
 457 331 l 0
 457 320 l 0
 445 320 428 317 407 274 c 0
 267 -9 l 0
 250 -9 l 0
 227 216 l 0
 115 -9 l 0
 98 -9 l 0
 62 272 l 0
 56 318 48 320 24 320 c 0
 24 331 l 0
 158 331 l 0
 158 320 l 0
 133 320 123 308 128 271 c 0
 150 109 l 0
 221 254 l 0
 219 272 l 0
EndSplineSet
EndChar

StartChar: X
Encoding: 88 88 87
Width: 333
VWidth: 0
Flags: HMW
LayerCount: 2
Fore
SplineSet
134 11 m 0
 172 11 173 26 163 60 c 0
 144 126 l 0
 69 49 l 0
 53 33 59 11 86 11 c 0
 86 0 l 0
 -12 0 l 0
 -12 11 l 0
 1 11 21 32 31 43 c 0
 137 152 l 0
 99 288 l 0
 90 318 65 320 56 320 c 0
 56 331 l 0
 202 331 l 0
 202 320 l 0
 170 320 161 307 171 271 c 0
 189 206 l 0
 263 282 l 0
 279 298 273 320 246 320 c 0
 246 331 l 0
 344 331 l 0
 344 320 l 0
 331 320 311 299 301 288 c 0
 197 181 l 0
 236 43 l 0
 243 15 270 11 279 11 c 0
 279 0 l 0
 134 0 l 0
 134 11 l 0
EndSplineSet
EndChar

StartChar: Y
Encoding: 89 89 88
Width: 305
VWidth: 0
Flags: HMW
LayerCount: 2
Fore
SplineSet
213 320 m 0
 213 331 l 0
 313 331 l 0
 313 320 l 0
 305 320 292 314 278 295 c 0
 168 150 l 0
 140 43 l 0
 136 26 136 11 174 11 c 0
 174 0 l 0
 23 0 l 0
 23 11 l 0
 54 11 61 19 67 44 c 0
 97 153 l 0
 59 288 l 0
 52 312 49 320 25 320 c 0
 25 331 l 0
 162 331 l 0
 162 320 l 0
 151 320 l 0
 132 320 123 309 131 281 c 0
 160 172 l 0
 231 269 l 0
 251 297 249 320 213 320 c 0
EndSplineSet
EndChar

StartChar: Z
Encoding: 90 90 89
Width: 305
VWidth: 0
Flags: HMW
LayerCount: 2
Fore
SplineSet
257 98 m 0
 271 96 l 0
 241 0 l 0
 -1 0 l 0
 -1 11 l 0
 214 313 l 0
 175 313 l 0
 153 313 117 310 89 282 c 0
 76 269 65 256 55 240 c 0
 39 240 l 0
 68 331 l 0
 297 331 l 0
 297 320 l 0
 82 18 l 0
 139 18 l 0
 159 18 195 27 223 55 c 0
 236 68 248 83 257 98 c 0
EndSplineSet
EndChar

StartChar: dieresis
Encoding: 91 168 90
Width: 166
VWidth: 0
Flags: HMW
LayerCount: 2
Fore
SplineSet
53 314 m 0
 66 327 85 327 98 314 c 0
 110 302 110 282 97 270 c 0
 85 257 65 257 52 270 c 0
 40 282 40 302 53 314 c 0
158 270 m 0
 145 282 145 302 157 314 c 0
 170 327 189 327 202 314 c 0
 215 302 215 282 203 270 c 0
 190 257 170 257 158 270 c 0
EndSplineSet
EndChar

StartChar: ring
Encoding: 92 730 91
Width: 166
VWidth: 0
Flags: HMW
LayerCount: 2
Fore
SplineSet
105 352 m 0
 85 371 85 404 106 424 c 0
 127 445 159 445 180 424 c 0
 199 404 199 371 178 352 c 0
 159 332 125 332 105 352 c 0
120 367 m 0
 131 356 150 356 161 367 c 0
 173 378 173 397 162 408 c 0
 150 420 132 420 120 408 c 0
 109 397 109 378 120 367 c 0
EndSplineSet
EndChar

StartChar: dotaccent
Encoding: 93 729 92
Width: 166
VWidth: 0
Flags: HMW
LayerCount: 2
Fore
SplineSet
53 314 m 0
 66 327 85 327 98 314 c 0
 110 302 110 282 97 270 c 0
 85 257 65 257 52 270 c 0
 40 282 40 302 53 314 c 0
EndSplineSet
EndChar

StartChar: circumflex
Encoding: 94 710 93
Width: 166
VWidth: 0
Flags: HMW
LayerCount: 2
Fore
SplineSet
197 255 m 0
 169 255 l 0
 130 300 l 0
 66 255 l 0
 35 255 l 0
 116 341 l 0
 157 341 l 0
 197 255 l 0
EndSplineSet
EndChar

StartChar: underscore
Encoding: 95 95 94
Width: 250
VWidth: 0
Flags: HMW
LayerCount: 2
Fore
SplineSet
0 -45 m 0
 250 -45 l 0
 250 -64 l 0
 0 -64 l 0
 0 -45 l 0
EndSplineSet
EndChar

StartChar: grave
Encoding: 96 96 95
Width: 166
VWidth: 0
Flags: HMW
LayerCount: 2
Fore
SplineSet
77 289 m 0
 58 300 52 322 64 334 c 0
 74 344 93 344 105 329 c 0
 162 255 l 0
 140 255 l 0
 77 289 l 0
EndSplineSet
EndChar

StartChar: a
Encoding: 97 97 96
Width: 250
VWidth: 0
Flags: HMW
LayerCount: 2
Fore
SplineSet
115 41 m 0
 136 62 186 176 161 201 c 0
 153 209 136 207 121 192 c 0
 100 171 44 65 74 36 c 0
 84 26 101 27 115 41 c 0
179 195 m 0
 187 221 l 0
 240 221 l 0
 190 43 l 0
 184 22 203 20 227 63 c 0
 237 55 l 0
 205 -13 156 -14 142 0 c 0
 130 11 131 30 133 42 c 0
 99 -14 45 -17 23 6 c 0
 -18 47 16 140 69 192 c 0
 112 236 153 234 166 222 c 0
 172 216 179 206 179 195 c 0
EndSplineSet
EndChar

StartChar: b
Encoding: 98 98 97
Width: 250
VWidth: 0
Flags: HMW
LayerCount: 2
Fore
SplineSet
219 215 m 0
 257 177 230 84 181 35 c 0
 151 5 121 -7 80 -7 c 0
 44 -6 28 -2 11 21 c 0
 84 284 l 0
 91 311 86 315 57 312 c 0
 57 323 l 0
 90 327 129 334 156 341 c 0
 112 182 l 0
 143 227 190 244 219 215 c 0
169 186 m 0
 154 201 123 193 97 129 c 0
 71 34 l 0
 62 3 100 1 128 30 c 0
 163 64 193 162 169 186 c 0
EndSplineSet
EndChar

StartChar: c
Encoding: 99 99 98
Width: 222
VWidth: 0
Flags: HMW
LayerCount: 2
Fore
SplineSet
186 61 m 0
 143 -17 67 -20 35 12 c 0
 0 47 4 126 68 190 c 0
 116 238 173 235 195 215 c 0
 212 197 213 170 200 158 c 0
 191 148 169 147 158 158 c 0
 139 178 167 198 157 208 c 0
 150 215 133 210 123 200 c 0
 89 167 60 62 84 38 c 0
 106 16 142 25 172 71 c 0
 186 61 l 0
EndSplineSet
EndChar

StartChar: d
Encoding: 100 100 99
Width: 250
VWidth: 0
Flags: HMW
LayerCount: 2
Fore
SplineSet
153 121 m 0
 170 178 l 0
 177 201 152 225 122 195 c 0
 87 160 53 54 72 35 c 0
 90 17 130 35 153 121 c 0
188 42 m 0
 182 21 197 19 222 62 c 0
 234 54 l 0
 205 -8 156 -16 140 0 c 0
 130 9 130 28 132 39 c 0
 97 -12 49 -18 22 8 c 0
 -14 44 14 139 68 193 c 0
 113 238 160 238 180 212 c 0
 199 284 l 0
 206 311 201 315 172 312 c 0
 172 323 l 0
 205 327 244 334 271 341 c 0
 188 42 l 0
EndSplineSet
EndChar

StartChar: e
Encoding: 101 101 100
Width: 222
VWidth: 0
Flags: HMW
LayerCount: 2
Fore
SplineSet
159 206 m 0
 152 212 134 208 125 199 c 0
 106 180 88 132 83 106 c 0
 99 110 121 121 140 140 c 0
 162 161 168 197 159 206 c 0
196 212 m 0
 211 197 214 164 187 138 c 0
 163 114 120 98 78 88 c 0
 77 76 72 49 84 37 c 0
 105 16 135 20 167 69 c 0
 180 60 l 0
 143 -13 68 -23 33 13 c 0
 -5 50 12 133 65 186 c 0
 113 234 168 240 196 212 c 0
EndSplineSet
EndChar

StartChar: f
Encoding: 102 102 101
Width: 166
VWidth: 0
Flags: HMW
LayerCount: 2
Fore
SplineSet
21 -4 m 0
 69 195 l 0
 35 195 l 0
 35 216 l 0
 74 216 l 0
 88 262 99 289 125 314 c 0
 157 348 203 346 221 329 c 0
 232 317 234 290 223 280 c 0
 213 269 197 270 186 281 c 0
 170 297 190 316 189 322 c 0
 189 328 178 329 168 319 c 0
 152 303 142 262 131 216 c 0
 172 216 l 0
 172 195 l 0
 126 195 l 0
 81 13 l 0
 73 -18 59 -52 35 -75 c 0
 -1 -111 -44 -107 -62 -89 c 0
 -76 -75 -75 -50 -64 -39 c 0
 -56 -31 -40 -30 -29 -41 c 0
 -12 -59 -31 -71 -31 -83 c 0
 -31 -87 -21 -92 -9 -80 c 0
 0 -71 6 -64 21 -4 c 0
EndSplineSet
EndChar

StartChar: g
Encoding: 103 103 102
Width: 250
VWidth: 0
Flags: HMW
LayerCount: 2
Fore
SplineSet
132 -28 m 0
 120 -16 86 -9 62 -3 c 0
 19 -23 25 -57 37 -69 c 0
 58 -90 114 -88 134 -68 c 0
 144 -57 143 -39 132 -28 c 0
131 102 m 0
 155 125 171 191 153 209 c 0
 145 217 125 215 114 204 c 0
 90 180 74 116 93 98 c 0
 101 90 120 91 131 102 c 0
196 211 m 0
 249 211 l 0
 249 182 l 0
 215 182 l 0
 223 165 216 128 192 105 c 0
 164 77 119 72 80 78 c 0
 35 41 135 55 180 10 c 0
 206 -16 199 -53 178 -73 c 0
 135 -116 23 -105 -2 -81 c 0
 -19 -63 -18 -32 -1 -15 c 0
 10 -4 32 1 46 3 c 0
 9 23 7 58 65 85 c 0
 21 97 16 163 52 199 c 0
 87 234 153 239 196 211 c 0
EndSplineSet
EndChar

StartChar: h
Encoding: 104 104 103
Width: 278
VWidth: 0
Flags: HMW
LayerCount: 2
Fore
SplineSet
139 191 m 0
 181 233 220 237 238 219 c 0
 245 212 248 194 245 183 c 0
 207 47 l 0
 200 26 219 20 247 67 c 0
 259 59 l 0
 230 -3 176 -18 158 0 c 0
 147 11 147 32 153 53 c 0
 186 173 l 0
 193 196 172 204 144 177 c 0
 120 152 90 100 78 57 c 0
 62 0 l 0
 6 0 l 0
 85 284 l 0
 92 311 87 315 58 312 c 0
 58 323 l 0
 91 327 130 334 157 341 c 0
 100 137 l 0
 111 156 127 179 139 191 c 0
EndSplineSet
EndChar

StartChar: i
Encoding: 105 105 104
Width: 139
VWidth: 0
Flags: HMW
LayerCount: 2
Fore
SplineSet
84 280 m 0
 71 293 71 314 85 328 c 0
 98 341 119 341 132 328 c 0
 145 315 145 293 131 280 c 0
 119 267 97 267 84 280 c 0
71 45 m 0
 62 13 100 31 120 70 c 0
 130 62 l 0
 95 -13 37 -14 23 0 c 0
 12 11 11 29 17 51 c 0
 51 172 l 0
 58 199 53 203 24 200 c 0
 24 211 l 0
 57 215 96 222 123 229 c 0
 71 45 l 0
EndSplineSet
EndChar

StartChar: j
Encoding: 106 106 105
Width: 139
VWidth: 0
Flags: HMW
LayerCount: 2
Fore
SplineSet
145 280 m 0
 133 267 111 267 98 280 c 0
 85 293 85 314 99 328 c 0
 112 341 133 341 146 328 c 0
 159 315 159 293 145 280 c 0
1 -56 m 0
 65 172 l 0
 72 199 67 203 38 200 c 0
 38 211 l 0
 71 215 110 222 137 229 c 0
 62 -36 l 0
 59 -47 49 -68 41 -76 c 0
 14 -103 -44 -113 -68 -88 c 0
 -81 -74 -77 -53 -68 -43 c 0
 -59 -35 -45 -33 -35 -43 c 0
 -19 -60 -32 -72 -32 -77 c 0
 -32 -87 -10 -95 1 -56 c 0
EndSplineSet
EndChar

StartChar: k
Encoding: 107 107 106
Width: 250
VWidth: 0
Flags: HMW
LayerCount: 2
Fore
SplineSet
113 105 m 0
 85 86 l 0
 61 0 l 0
 5 0 l 0
 84 284 l 0
 91 311 86 315 57 312 c 0
 57 323 l 0
 90 327 129 334 156 341 c 0
 93 115 l 0
 199 183 197 210 157 210 c 0
 157 221 l 0
 256 221 l 0
 256 210 l 0
 232 210 216 192 163 139 c 0
 165 112 175 42 188 30 c 0
 195 23 209 29 224 59 c 0
 235 53 l 0
 210 -15 162 -15 145 3 c 0
 126 22 118 64 113 105 c 0
EndSplineSet
EndChar

StartChar: l
Encoding: 108 108 107
Width: 139
VWidth: 0
Flags: HMW
LayerCount: 2
Fore
SplineSet
75 48 m 0
 67 22 88 24 114 67 c 0
 126 59 l 0
 93 -6 42 -17 25 0 c 0
 14 11 14 29 20 53 c 0
 84 284 l 0
 91 311 86 315 57 312 c 0
 57 323 l 0
 90 327 129 334 156 341 c 0
 75 48 l 0
EndSplineSet
EndChar

StartChar: m
Encoding: 109 109 108
Width: 389
VWidth: 0
Flags: HMW
LayerCount: 2
Fore
SplineSet
239 183 m 0
 226 137 l 0
 238 159 255 183 277 205 c 0
 301 229 340 235 352 223 c 0
 364 211 365 196 362 183 c 0
 323 47 l 0
 318 29 330 17 357 64 c 0
 371 59 l 0
 338 -10 289 -15 274 -1 c 0
 260 12 261 25 269 53 c 0
 303 173 l 0
 308 191 296 203 269 176 c 0
 247 154 212 91 203 57 c 0
 187 0 l 0
 131 0 l 0
 180 173 l 0
 185 191 173 203 146 176 c 0
 124 154 89 91 80 57 c 0
 64 0 l 0
 8 0 l 0
 56 172 l 0
 63 199 58 203 29 200 c 0
 29 211 l 0
 62 215 101 222 128 229 c 0
 102 137 l 0
 115 159 132 183 154 205 c 0
 178 229 217 235 229 223 c 0
 241 211 242 196 239 183 c 0
EndSplineSet
EndChar

StartChar: n
Encoding: 110 110 109
Width: 278
VWidth: 0
Flags: HMW
LayerCount: 2
Fore
SplineSet
211 46 m 0
 205 25 221 21 247 67 c 0
 259 59 l 0
 223 -10 178 -16 162 0 c 0
 152 10 151 32 157 53 c 0
 190 173 l 0
 196 196 179 204 148 173 c 0
 114 140 90 81 84 57 c 0
 68 0 l 0
 12 0 l 0
 60 172 l 0
 67 199 62 203 33 200 c 0
 33 211 l 0
 66 215 105 222 132 229 c 0
 106 137 l 0
 115 154 126 170 145 190 c 0
 186 231 223 238 242 219 c 0
 247 214 253 197 249 183 c 0
 211 46 l 0
EndSplineSet
EndChar

StartChar: o
Encoding: 111 111 110
Width: 250
VWidth: 0
Flags: HMW
LayerCount: 2
Fore
SplineSet
171 206 m 0
 160 216 137 213 123 199 c 0
 86 163 60 33 76 16 c 0
 87 6 110 9 124 23 c 0
 161 59 187 189 171 206 c 0
36 13 m 0
 -8 57 21 145 65 189 c 0
 109 232 179 243 212 209 c 0
 256 165 227 77 183 33 c 0
 139 -10 69 -21 36 13 c 0
EndSplineSet
EndChar

StartChar: p
Encoding: 112 112 111
Width: 250
VWidth: 0
Flags: HMW
LayerCount: 2
Fore
SplineSet
129 26 m 0
 155 51 193 168 176 185 c 0
 153 208 113 169 103 133 c 0
 74 26 l 0
 79 11 102 -1 129 26 c 0
-6 -58 m 0
 58 172 l 0
 65 199 60 203 31 200 c 0
 31 211 l 0
 64 215 103 222 130 229 c 0
 117 183 l 0
 150 234 201 239 224 216 c 0
 260 181 236 82 179 25 c 0
 146 -8 91 -15 67 3 c 0
 50 -59 l 0
 45 -80 45 -91 78 -91 c 0
 78 -102 l 0
 -40 -102 l 0
 -40 -91 l 0
 -16 -91 -13 -82 -6 -58 c 0
EndSplineSet
EndChar

StartChar: q
Encoding: 113 113 112
Width: 250
VWidth: 0
Flags: HMW
LayerCount: 2
Fore
SplineSet
78 35 m 0
 86 26 106 26 117 38 c 0
 140 61 190 176 167 199 c 0
 161 205 144 209 128 193 c 0
 97 163 57 55 78 35 c 0
166 -59 m 0
 161 -80 161 -91 194 -91 c 0
 194 -102 l 0
 66 -102 l 0
 66 -91 l 0
 93 -91 103 -82 110 -58 c 0
 137 40 l 0
 101 -16 48 -16 26 7 c 0
 -6 37 12 130 76 193 c 0
 117 234 175 247 185 196 c 0
 191 221 l 0
 243 221 l 0
 166 -59 l 0
EndSplineSet
EndChar

StartChar: r
Encoding: 114 114 113
Width: 194
VWidth: 0
Flags: HMW
LayerCount: 2
Fore
SplineSet
197 221 m 0
 212 206 211 182 197 168 c 0
 186 156 164 154 157 167 c 0
 149 182 148 182 134 169 c 0
 105 141 74 49 66 17 c 0
 61 0 l 0
 5 0 l 0
 52 172 l 0
 59 199 54 203 25 200 c 0
 25 211 l 0
 58 215 97 222 124 229 c 0
 98 132 l 0
 114 170 137 202 150 215 c 0
 166 231 184 234 197 221 c 0
EndSplineSet
EndChar

StartChar: s
Encoding: 115 115 114
Width: 194
VWidth: 0
Flags: HMW
LayerCount: 2
Fore
SplineSet
168 228 m 0
 182 228 l 0
 170 151 l 0
 157 151 l 0
 149 216 111 218 96 203 c 0
 81 188 93 165 126 127 c 0
 158 90 165 43 136 14 c 0
 114 -8 78 -12 55 -3 c 0
 35 5 27 8 22 -7 c 0
 8 -7 l 0
 21 77 l 0
 34 77 l 0
 30 34 72 -7 98 19 c 0
 106 26 117 45 70 99 c 0
 31 145 43 191 63 211 c 0
 81 229 111 234 131 225 c 0
 142 220 163 208 168 228 c 0
EndSplineSet
EndChar

StartChar: t
Encoding: 116 116 115
Width: 139
VWidth: 0
Flags: HMW
LayerCount: 2
Fore
SplineSet
17 0 m 0
 6 11 6 29 12 53 c 0
 53 200 l 0
 29 200 l 0
 29 219 l 0
 67 233 94 258 120 296 c 0
 135 296 l 0
 115 223 l 0
 153 223 l 0
 153 200 l 0
 109 200 l 0
 67 48 l 0
 59 22 80 24 106 67 c 0
 118 59 l 0
 85 -6 34 -17 17 0 c 0
EndSplineSet
EndChar

StartChar: u
Encoding: 117 117 116
Width: 278
VWidth: 0
Flags: HMW
LayerCount: 2
Fore
SplineSet
212 45 m 0
 206 22 224 21 252 63 c 0
 262 55 l 0
 230 -9 180 -16 164 0 c 0
 151 13 149 29 164 72 c 0
 118 -7 54 -18 34 1 c 0
 22 13 21 26 28 51 c 0
 62 172 l 0
 69 199 64 203 35 200 c 0
 35 211 l 0
 68 215 107 222 134 229 c 0
 84 51 l 0
 77 27 102 21 126 45 c 0
 155 73 182 137 191 169 c 0
 206 221 l 0
 262 221 l 0
 212 45 l 0
EndSplineSet
EndChar

StartChar: v
Encoding: 118 118 117
Width: 222
VWidth: 0
Flags: HMW
LayerCount: 2
Fore
SplineSet
208 159 m 0
 186 115 97 27 69 -7 c 0
 55 -7 l 0
 55 10 58 42 58 160 c 0
 58 184 52 203 25 203 c 0
 25 214 l 0
 45 215 74 221 101 229 c 0
 117 183 108 117 113 67 c 0
 171 124 192 148 172 171 c 0
 149 197 159 213 170 224 c 0
 177 231 196 231 204 224 c 0
 223 205 217 178 208 159 c 0
EndSplineSet
EndChar

StartChar: w
Encoding: 119 119 118
Width: 333
VWidth: 0
Flags: HMW
LayerCount: 2
Fore
SplineSet
62 160 m 0
 58 192 51 203 25 203 c 0
 25 214 l 0
 40 215 80 222 103 229 c 0
 111 207 121 140 123 97 c 0
 200 229 l 0
 212 229 l 0
 224 62 l 0
 242 89 300 135 273 170 c 0
 261 186 259 208 272 221 c 0
 283 232 302 231 312 221 c 0
 330 203 319 165 301 135 c 0
 275 92 225 39 190 -7 c 0
 172 -7 l 0
 164 128 l 0
 82 -7 l 0
 67 -7 l 0
 72 74 65 130 62 160 c 0
EndSplineSet
EndChar

StartChar: x
Encoding: 120 120 119
Width: 250
VWidth: 0
Flags: HMW
LayerCount: 2
Fore
SplineSet
240 177 m 0
 223 159 203 179 194 179 c 0
 186 179 172 180 150 133 c 0
 158 100 153 56 173 37 c 0
 183 26 198 40 211 60 c 0
 223 52 l 0
 187 -8 149 -17 131 0 c 0
 119 13 110 34 106 71 c 0
 97 52 86 30 70 14 c 0
 44 -12 18 -9 10 -1 c 0
 1 8 1 34 10 43 c 0
 24 57 33 50 49 43 c 0
 60 36 74 45 101 94 c 0
 87 171 l 0
 80 206 67 203 44 204 c 0
 44 215 l 0
 71 218 107 224 125 229 c 0
 133 220 144 184 146 160 c 0
 172 196 l 0
 200 233 229 235 242 222 c 0
 252 212 252 188 240 177 c 0
EndSplineSet
EndChar

StartChar: y
Encoding: 121 121 120
Width: 222
VWidth: 0
Flags: HMW
LayerCount: 2
Fore
SplineSet
84 -18 m 0
 80 34 62 134 54 174 c 0
 48 200 40 200 24 200 c 0
 24 211 l 0
 39 213 80 223 100 229 c 0
 111 193 127 98 135 53 c 0
 149 78 168 119 176 138 c 0
 181 151 183 155 168 171 c 0
 151 189 152 210 163 221 c 0
 174 232 193 231 203 221 c 0
 213 212 212 200 212 188 c 0
 212 140 121 -22 76 -66 c 0
 33 -109 -6 -108 -21 -93 c 0
 -33 -81 -32 -63 -22 -53 c 0
 -11 -42 8 -41 23 -57 c 0
 41 -75 77 -47 84 -18 c 0
EndSplineSet
EndChar

StartChar: z
Encoding: 122 122 121
Width: 194
VWidth: 0
Flags: HMW
LayerCount: 2
Fore
SplineSet
122 -15 m 0
 134 -22 143 -13 132 0 c 0
 126 9 128 22 136 30 c 0
 148 42 164 41 173 32 c 0
 184 21 186 -4 168 -21 c 0
 148 -41 110 -42 76 -17 c 0
 42 9 27 13 11 -2 c 0
 -7 -21 -21 -8 -5 9 c 0
 135 173 l 0
 72 173 l 0
 56 173 46 169 39 145 c 0
 24 145 l 0
 47 223 l 0
 197 223 l 0
 197 217 l 0
 60 57 l 0
 105 39 106 -6 122 -15 c 0
EndSplineSet
EndChar

StartChar: breve
Encoding: 123 728 122
Width: 166
VWidth: 0
Flags: HMW
LayerCount: 2
Fore
SplineSet
66 341 m 0
 38 254 141 264 166 341 c 0
 197 341 l 0
 157 226 1 226 35 341 c 0
 66 341 l 0
EndSplineSet
EndChar

StartChar: macron
Encoding: 124 175 123
Width: 166
VWidth: 0
Flags: HMW
LayerCount: 2
Fore
SplineSet
41 308 m 0
 210 308 l 0
 210 274 l 0
 41 274 l 0
 41 308 l 0
EndSplineSet
EndChar

StartChar: hungarumlaut
Encoding: 125 733 124
Width: 166
VWidth: 0
Flags: HMW
LayerCount: 2
Fore
SplineSet
245 331 m 0
 260 346 278 342 285 335 c 0
 296 324 292 304 276 295 c 0
 197 255 l 0
 172 255 l 0
 245 331 l 0
157 331 m 0
 172 346 190 342 197 335 c 0
 208 324 204 304 188 295 c 0
 109 255 l 0
 84 255 l 0
 157 331 l 0
EndSplineSet
EndChar

StartChar: tilde
Encoding: 126 732 125
Width: 166
VWidth: 0
Flags: HMW
LayerCount: 2
Fore
SplineSet
190 324 m 0
 212 324 l 0
 212 318 207 295 192 280 c 0
 140 228 79 332 57 265 c 0
 35 265 l 0
 35 270 38 292 55 309 c 0
 107 361 168 257 190 324 c 0
EndSplineSet
EndChar

StartChar: caron
Encoding: 127 711 126
Width: 166
VWidth: 0
Flags: HMW
LayerCount: 2
Fore
SplineSet
197 341 m 0
 119 255 l 0
 78 255 l 0
 35 341 l 0
 66 341 l 0
 100 292 l 0
 169 341 l 0
 197 341 l 0
EndSplineSet
EndChar

StartChar: onesuperior
Encoding: 128 185 127
Width: 150
VWidth: 0
Flags: HMW
LayerCount: 2
Fore
SplineSet
117 136 m 0
 117 129 l 0
 9 129 l 0
 9 136 l 0
 40 136 43 148 50 167 c 0
 87 296 l 0
 94 318 91 317 57 315 c 0
 57 322 l 0
 142 338 l 0
 92 167 l 0
 86 146 84 136 117 136 c 0
EndSplineSet
EndChar

StartChar: twosuperior
Encoding: 129 178 128
Width: 150
VWidth: 0
Flags: HMW
LayerCount: 2
Fore
SplineSet
41 164 m 0
 101 164 l 0
 118 164 125 170 137 188 c 0
 145 188 l 0
 116 129 l 0
 -1 129 l 0
 -1 136 l 0
 47 180 93 228 103 247 c 0
 115 269 113 289 103 299 c 0
 83 319 53 308 37 280 c 0
 31 284 l 0
 36 296 46 312 53 319 c 0
 75 341 115 346 137 324 c 0
 154 307 163 265 121 224 c 0
 103 205 70 188 41 164 c 0
EndSplineSet
EndChar

StartChar: threesuperior
Encoding: 130 179 129
Width: 150
VWidth: 0
Flags: HMW
LayerCount: 2
Fore
SplineSet
43 296 m 0
 71 342 117 348 140 325 c 0
 161 304 154 266 113 249 c 0
 141 242 149 191 113 155 c 0
 76 118 21 127 4 144 c 0
 -2 149 0 159 7 167 c 0
 14 174 32 171 41 154 c 0
 49 140 69 137 88 155 c 0
 105 171 104 205 86 222 c 0
 78 231 69 236 51 235 c 0
 53 243 l 0
 69 247 89 251 100 262 c 0
 114 275 118 296 104 309 c 0
 89 324 61 313 49 291 c 0
 43 296 l 0
EndSplineSet
EndChar

StartChar: foursuperior
Encoding: 131 8308 130
Width: 150
VWidth: 0
Flags: HMW
LayerCount: 2
Fore
SplineSet
12 205 m 0
 76 205 l 0
 99 285 l 0
 12 205 l 0
67 174 m 0
 -12 174 l 0
 -3 207 l 0
 133 335 l 0
 152 335 l 0
 115 205 l 0
 134 205 l 0
 126 174 l 0
 106 174 l 0
 93 128 l 0
 54 128 l 0
 67 174 l 0
EndSplineSet
EndChar

StartChar: fraction
Encoding: 132 8260 131
Width: 83
VWidth: 0
Flags: HMW
LayerCount: 2
Fore
SplineSet
78 0 m 0
 302 331 l 0
 327 331 l 0
 103 0 l 0
 78 0 l 0
EndSplineSet
EndChar

StartChar: percent
Encoding: 136 37 135
Width: 416
VWidth: 0
Flags: HMW
LayerCount: 2
Fore
SplineSet
168 291 m 0
 160 295 147 305 141 310 c 0
 109 300 53 200 82 171 c 0
 91 162 110 162 128 180 c 0
 153 205 163 247 168 291 c 0
364 157 m 0
 355 166 339 165 327 154 c 0
 306 132 266 57 289 35 c 0
 302 22 319 24 339 45 c 0
 353 57 391 131 364 157 c 0
374 180 m 0
 408 146 389 68 351 29 c 0
 317 -5 275 -10 247 18 c 0
 217 47 223 116 270 163 c 0
 305 198 352 202 374 180 c 0
266 298 m 0
 235 285 206 285 182 289 c 0
 188 258 172 197 142 167 c 0
 105 130 63 130 38 156 c 0
 9 185 16 256 55 295 c 0
 105 345 147 334 168 319 c 0
 221 279 283 321 299 343 c 0
 318 343 l 0
 126 -4 l 0
 100 -4 l 0
 266 298 l 0
EndSplineSet
EndChar

StartChar: perthousand
Encoding: 137 8240 136
Width: 500
VWidth: 0
Flags: HMW
LayerCount: 2
Fore
SplineSet
238 298 m 0
 207 285 202 285 178 289 c 0
 184 258 168 197 138 167 c 0
 101 130 63 130 38 156 c 0
 9 185 16 256 55 295 c 0
 105 345 143 334 164 319 c 0
 217 279 255 321 271 343 c 0
 290 343 l 0
 98 -4 l 0
 72 -4 l 0
 238 298 l 0
484 180 m 0
 518 146 499 68 461 29 c 0
 427 -5 389 -10 361 18 c 0
 331 47 337 116 384 163 c 0
 419 198 462 202 484 180 c 0
320 180 m 0
 354 146 335 68 297 29 c 0
 263 -5 225 -10 197 18 c 0
 167 47 173 116 220 163 c 0
 255 198 298 202 320 180 c 0
474 157 m 0
 465 166 453 165 441 154 c 0
 420 132 380 57 403 35 c 0
 416 22 429 24 449 45 c 0
 463 57 501 131 474 157 c 0
310 157 m 0
 301 166 289 165 277 154 c 0
 256 132 216 57 239 35 c 0
 252 22 265 24 285 45 c 0
 299 57 337 131 310 157 c 0
164 291 m 0
 156 295 143 305 137 310 c 0
 105 300 49 200 78 171 c 0
 87 162 106 162 124 180 c 0
 149 205 159 247 164 291 c 0
EndSplineSet
EndChar

StartChar: degree
Encoding: 138 176 137
Width: 200
VWidth: 0
Flags: HMW
LayerCount: 2
Fore
SplineSet
56 210 m 0
 28 238 28 286 57 316 c 0
 87 346 134 346 163 316 c 0
 192 288 192 239 162 210 c 0
 134 180 85 180 56 210 c 0
143 230 m 0
 160 247 160 277 142 296 c 0
 124 314 95 314 77 296 c 0
 59 278 59 248 77 230 c 0
 95 212 125 212 143 230 c 0
EndSplineSet
EndChar

StartChar: periodcentered
Encoding: 139 183 138
Width: 125
VWidth: 0
Flags: HMW
LayerCount: 2
Fore
SplineSet
36 101 m 0
 22 115 22 139 37 153 c 0
 52 168 75 168 90 153 c 0
 104 139 104 115 89 101 c 0
 75 86 51 86 36 101 c 0
EndSplineSet
EndChar

StartChar: bullet
Encoding: 140 8226 139
Width: 175
VWidth: 0
Flags: HMW
LayerCount: 2
Fore
SplineSet
43 108 m 0
 19 131 19 171 44 196 c 0
 68 220 107 220 132 196 c 0
 155 172 155 132 131 108 c 0
 107 83 67 83 43 108 c 0
EndSplineSet
EndChar

StartChar: guilsinglleft
Encoding: 141 8249 140
Width: 166
VWidth: 0
Flags: HMW
LayerCount: 2
Fore
SplineSet
145 208 m 0
 164 204 158 189 114 145 c 0
 80 111 l 0
 97 76 l 0
 122 25 122 18 107 17 c 0
 21 111 l 0
 145 208 l 0
EndSplineSet
EndChar

StartChar: guilsinglright
Encoding: 142 8250 141
Width: 166
VWidth: 0
Flags: HMW
LayerCount: 2
Fore
SplineSet
60 208 m 0
 146 114 l 0
 22 17 l 0
 3 21 9 36 53 80 c 0
 87 114 l 0
 70 149 l 0
 45 200 45 207 60 208 c 0
EndSplineSet
EndChar

StartChar: guillemotleft
Encoding: 143 171 142
Width: 250
VWidth: 0
Flags: HMW
LayerCount: 2
Fore
SplineSet
135 208 m 0
 154 204 148 189 104 145 c 0
 70 111 l 0
 87 76 l 0
 112 25 112 18 97 17 c 0
 11 111 l 0
 135 208 l 0
189 17 m 0
 103 111 l 0
 227 208 l 0
 246 204 240 189 196 145 c 0
 162 111 l 0
 179 76 l 0
 204 25 204 18 189 17 c 0
EndSplineSet
EndChar

StartChar: guillemotright
Encoding: 144 187 143
Width: 250
VWidth: 0
Flags: HMW
LayerCount: 2
Fore
SplineSet
52 80 m 0
 86 114 l 0
 69 149 l 0
 44 200 44 207 59 208 c 0
 145 114 l 0
 21 17 l 0
 2 21 8 36 52 80 c 0
113 17 m 0
 94 21 100 36 144 80 c 0
 178 114 l 0
 161 149 l 0
 136 200 136 207 151 208 c 0
 237 114 l 0
 113 17 l 0
EndSplineSet
EndChar

StartChar: paragraph
Encoding: 145 182 144
Width: 250
VWidth: 0
Flags: HMW
LayerCount: 2
Fore
SplineSet
163 341 m 0
 296 341 l 0
 284 301 l 0
 246 301 l 0
 135 -95 l 0
 105 -95 l 0
 216 301 l 0
 175 301 l 0
 64 -95 l 0
 34 -95 l 0
 91 108 l 0
 76 110 62 115 53 125 c 0
 18 160 25 242 76 293 c 0
 113 331 141 340 163 341 c 0
EndSplineSet
EndChar

StartChar: section
Encoding: 146 167 145
Width: 250
VWidth: 0
Flags: HMW
LayerCount: 2
Fore
SplineSet
168 80 m 0
 189 102 171 138 137 172 c 0
 106 203 90 195 80 186 c 0
 66 172 71 137 112 96 c 0
 141 67 156 69 168 80 c 0
108 26 m 0
 69 71 43 100 38 133 c 0
 34 160 45 183 56 194 c 0
 67 205 90 212 114 206 c 0
 77 243 81 291 106 316 c 0
 135 345 187 345 212 320 c 0
 229 302 231 273 220 262 c 0
 209 250 191 250 179 261 c 0
 158 282 190 305 190 312 c 0
 190 322 156 335 134 313 c 0
 121 300 120 284 127 266 c 0
 138 237 211 176 211 124 c 0
 211 75 175 54 140 60 c 0
 175 24 172 -26 150 -48 c 0
 119 -79 60 -79 32 -51 c 0
 15 -34 15 -5 28 8 c 0
 36 16 54 18 65 6 c 0
 88 -17 55 -37 55 -44 c 0
 55 -52 93 -72 118 -46 c 0
 132 -32 134 -4 108 26 c 0
EndSplineSet
EndChar

StartChar: plus
Encoding: 147 43 146
Width: 285
VWidth: 0
Flags: HMW
LayerCount: 2
Fore
SplineSet
122 253 m 0
 164 253 l 0
 164 147 l 0
 269 147 l 0
 269 106 l 0
 164 106 l 0
 164 0 l 0
 122 0 l 0
 122 106 l 0
 17 106 l 0
 17 147 l 0
 122 147 l 0
 122 253 l 0
EndSplineSet
EndChar

StartChar: multiply
Encoding: 148 215 147
Width: 285
VWidth: 0
Flags: HMW
LayerCount: 2
Fore
SplineSet
46 256 m 0
 143 157 l 0
 240 256 l 0
 269 227 l 0
 172 128 l 0
 269 29 l 0
 240 0 l 0
 143 99 l 0
 46 0 l 0
 17 29 l 0
 114 128 l 0
 17 227 l 0
 46 256 l 0
EndSplineSet
EndChar

StartChar: divide
Encoding: 149 247 148
Width: 285
VWidth: 0
Flags: HMW
LayerCount: 2
Fore
SplineSet
170 63 m 0
 184 49 184 25 169 11 c 0
 155 -4 131 -4 116 11 c 0
 102 25 102 49 117 63 c 0
 132 78 155 78 170 63 c 0
116 242 m 0
 131 257 155 257 169 242 c 0
 184 228 184 204 170 190 c 0
 155 175 132 175 117 190 c 0
 102 204 102 228 116 242 c 0
17 147 m 0
 269 147 l 0
 269 106 l 0
 17 106 l 0
 17 147 l 0
EndSplineSet
EndChar

StartChar: plusminus
Encoding: 150 177 149
Width: 285
VWidth: 0
Flags: HMW
LayerCount: 2
Fore
SplineSet
164 331 m 0
 164 225 l 0
 269 225 l 0
 269 184 l 0
 164 184 l 0
 164 78 l 0
 122 78 l 0
 122 184 l 0
 17 184 l 0
 17 225 l 0
 122 225 l 0
 122 331 l 0
 164 331 l 0
269 0 m 0
 17 0 l 0
 17 41 l 0
 269 41 l 0
 269 0 l 0
EndSplineSet
EndChar

StartChar: endash
Encoding: 151 8211 150
Width: 250
VWidth: 0
Flags: HMW
LayerCount: 2
Fore
SplineSet
256 133 m 0
 256 88 l 0
 -6 88 l 0
 -6 133 l 0
 256 133 l 0
EndSplineSet
EndChar

StartChar: emdash
Encoding: 152 8212 151
Width: 500
VWidth: 0
Flags: HMW
LayerCount: 2
Fore
SplineSet
507 133 m 0
 507 88 l 0
 -7 88 l 0
 -7 133 l 0
 507 133 l 0
EndSplineSet
EndChar

StartChar: minus
Encoding: 153 8722 152
Width: 303
VWidth: 0
Flags: HMW
LayerCount: 2
Fore
SplineSet
26 147 m 0
 278 147 l 0
 278 106 l 0
 26 106 l 0
 26 147 l 0
EndSplineSet
EndChar

StartChar: bracketleft
Encoding: 154 91 153
Width: 166
VWidth: 0
Flags: HMW
LayerCount: 2
Fore
SplineSet
55 -30 m 0
 51 -47 58 -62 84 -62 c 0
 99 -62 l 0
 98 -79 l 0
 -4 -79 l 0
 97 341 l 0
 194 341 l 0
 190 324 l 0
 171 324 l 0
 150 324 139 316 133 291 c 0
 55 -30 l 0
EndSplineSet
EndChar

StartChar: bracketright
Encoding: 155 93 154
Width: 166
VWidth: 0
Flags: HMW
LayerCount: 2
Fore
SplineSet
-10 -62 m 0
 11 -62 22 -54 28 -29 c 0
 106 292 l 0
 110 309 103 324 77 324 c 0
 62 324 l 0
 63 341 l 0
 165 341 l 0
 64 -79 l 0
 -33 -79 l 0
 -29 -62 l 0
 -10 -62 l 0
EndSplineSet
EndChar

StartChar: dagger
Encoding: 156 8224 155
Width: 250
VWidth: 0
Flags: HMW
LayerCount: 2
Fore
SplineSet
141 279 m 0
 136 296 139 324 145 330 c 0
 156 341 176 341 186 331 c 0
 197 320 193 303 179 279 c 0
 172 268 159 255 154 228 c 0
 168 228 183 232 193 238 c 0
 214 251 230 249 237 242 c 0
 248 231 247 211 238 202 c 0
 227 191 211 191 192 205 c 0
 184 211 168 215 151 216 c 0
 144 182 147 148 159 131 c 0
 145 113 122 70 90 -72 c 0
 77 -72 l 0
 98 54 102 89 95 136 c 0
 113 147 131 181 140 216 c 0
 131 216 111 214 98 205 c 0
 78 190 62 192 53 201 c 0
 43 211 42 231 53 242 c 0
 62 251 81 249 97 238 c 0
 108 231 123 228 141 228 c 0
 146 249 146 260 141 279 c 0
EndSplineSet
EndChar

StartChar: daggerdbl
Encoding: 157 8225 156
Width: 250
VWidth: 0
Flags: HMW
LayerCount: 2
Fore
SplineSet
139 216 m 0
 130 216 110 214 97 205 c 0
 77 190 61 192 52 201 c 0
 42 211 41 231 52 242 c 0
 61 251 80 249 96 238 c 0
 107 231 122 228 140 228 c 0
 145 249 145 260 140 279 c 0
 135 296 138 324 144 330 c 0
 155 341 175 341 185 331 c 0
 196 320 192 303 178 279 c 0
 171 268 158 255 153 228 c 0
 167 228 182 232 192 238 c 0
 213 251 229 249 236 242 c 0
 247 231 246 211 237 202 c 0
 226 191 210 191 191 205 c 0
 183 211 167 215 150 216 c 0
 143 182 146 148 156 130 c 0
 138 119 120 85 111 50 c 0
 120 50 140 52 153 61 c 0
 173 76 189 74 198 65 c 0
 208 55 209 35 198 24 c 0
 189 15 170 17 154 28 c 0
 143 35 128 38 110 38 c 0
 105 17 105 6 110 -13 c 0
 115 -30 112 -58 106 -64 c 0
 95 -75 75 -75 65 -65 c 0
 54 -54 58 -37 72 -13 c 0
 79 -2 92 11 97 38 c 0
 83 38 68 34 58 28 c 0
 37 15 21 17 14 24 c 0
 3 35 4 55 13 64 c 0
 24 75 40 75 59 61 c 0
 67 55 83 51 100 50 c 0
 107 84 104 118 94 136 c 0
 112 147 130 181 139 216 c 0
EndSplineSet
EndChar

StartChar: braceleft
Encoding: 158 123 157
Width: 174
VWidth: 0
Flags: HMW
LayerCount: 2
Fore
SplineSet
66 -19 m 0
 56 -59 69 -68 96 -74 c 0
 47 -85 7 -68 19 -19 c 0
 42 78 l 0
 50 110 44 124 18 133 c 0
 38 137 62 157 67 181 c 0
 88 272 l 0
 104 339 146 352 192 338 c 0
 163 333 146 316 139 286 c 0
 117 188 l 0
 109 156 91 136 67 133 c 0
 87 126 97 106 92 85 c 0
 66 -19 l 0
EndSplineSet
EndChar

StartChar: braceright
Encoding: 159 125 158
Width: 174
VWidth: 0
Flags: HMW
LayerCount: 2
Fore
SplineSet
84 181 m 0
 110 285 l 0
 120 325 107 334 80 340 c 0
 129 351 169 334 157 285 c 0
 134 188 l 0
 126 156 132 142 158 133 c 0
 138 129 114 109 109 85 c 0
 88 -6 l 0
 72 -73 30 -86 -16 -72 c 0
 13 -67 30 -50 37 -20 c 0
 59 78 l 0
 67 110 85 130 109 133 c 0
 89 140 79 160 84 181 c 0
EndSplineSet
EndChar

StartChar: at
Encoding: 160 64 159
Width: 416
VWidth: 0
Flags: HMW
LayerCount: 2
Fore
SplineSet
216 202 m 0
 190 177 153 67 178 42 c 0
 186 34 199 35 214 50 c 0
 243 78 281 187 255 213 c 0
 245 223 229 217 216 202 c 0
92 -8 m 0
 151 -67 241 -65 322 -42 c 0
 328 -55 l 0
 227 -96 105 -71 42 -8 c 0
 -25 58 -24 177 66 268 c 0
 164 366 298 369 372 295 c 0
 438 229 433 116 368 53 c 0
 320 4 261 -12 241 8 c 0
 231 18 231 35 235 49 c 0
 200 -5 150 -10 129 12 c 0
 92 49 116 146 177 206 c 0
 231 260 274 239 275 208 c 0
 283 233 l 0
 333 233 l 0
 281 47 l 0
 278 37 296 6 352 62 c 0
 410 120 415 218 355 277 c 0
 273 360 161 313 113 265 c 0
 39 192 25 59 92 -8 c 0
EndSplineSet
EndChar

StartChar: ampersand
Encoding: 161 38 160
Width: 389
VWidth: 0
Flags: HMW
LayerCount: 2
Fore
SplineSet
196 43 m 0
 174 75 159 112 147 168 c 0
 132 163 117 156 104 143 c 0
 71 110 84 66 106 44 c 0
 125 25 162 23 196 43 c 0
259 164 m 0
 259 175 l 0
 363 175 l 0
 363 164 l 0
 327 164 305 122 262 67 c 0
 290 33 318 18 351 54 c 0
 364 42 l 0
 322 -26 256 -16 209 25 c 0
 155 -15 79 -18 42 19 c 0
 17 43 8 97 52 141 c 0
 76 165 122 182 142 188 c 0
 135 241 143 288 170 314 c 0
 200 344 259 347 287 319 c 0
 310 296 299 253 276 230 c 0
 256 210 228 206 204 193 c 0
 211 153 227 108 249 82 c 0
 304 147 293 164 259 164 c 0
201 211 m 0
 215 222 236 237 244 246 c 0
 264 266 267 302 255 314 c 0
 244 325 224 324 213 313 c 0
 198 298 193 246 201 211 c 0
EndSplineSet
EndChar

StartChar: asciicircum
Encoding: 162 94 161
Width: 285
VWidth: 0
Flags: HMW
LayerCount: 2
Fore
SplineSet
51 126 m 0
 199 327 l 0
 234 327 l 0
 272 125 l 0
 222 125 l 0
 205 262 l 0
 104 126 l 0
 51 126 l 0
EndSplineSet
EndChar

StartChar: bar
Encoding: 163 124 162
Width: 110
VWidth: 0
Flags: HMW
LayerCount: 2
Fore
SplineSet
35 341 m 0
 75 341 l 0
 75 0 l 0
 35 0 l 0
 35 341 l 0
EndSplineSet
EndChar

StartChar: brokenbar
Encoding: 164 166 163
Width: 110
VWidth: 0
Flags: HMW
LayerCount: 2
Fore
SplineSet
35 204 m 0
 35 341 l 0
 75 341 l 0
 75 204 l 0
 35 204 l 0
35 137 m 0
 75 137 l 0
 75 0 l 0
 35 0 l 0
 35 137 l 0
EndSplineSet
EndChar

StartChar: logicalnot
Encoding: 165 172 164
Width: 303
VWidth: 0
Flags: HMW
LayerCount: 2
Fore
SplineSet
278 197 m 0
 278 50 l 0
 236 50 l 0
 236 156 l 0
 26 156 l 0
 26 197 l 0
 278 197 l 0
EndSplineSet
EndChar

StartChar: copyright
Encoding: 166 169 165
Width: 373
VWidth: 0
Flags: HMW
LayerCount: 2
Fore
SplineSet
239 193 m 0
 225 242 186 249 161 223 c 0
 133 195 134 134 164 104 c 0
 189 79 225 86 250 116 c 0
 259 108 l 0
 223 57 156 59 121 94 c 0
 86 128 85 189 121 225 c 0
 157 261 209 259 253 240 c 0
 253 193 l 0
 239 193 l 0
306 288 m 0
 374 220 374 113 306 45 c 0
 237 -24 129 -24 63 44 c 0
 -5 112 -5 218 63 287 c 0
 132 355 238 355 306 288 c 0
283 263 m 0
 228 319 142 319 88 263 c 0
 32 207 32 122 86 66 c 0
 140 12 227 12 283 68 c 0
 337 124 337 208 283 263 c 0
EndSplineSet
EndChar

StartChar: registered
Encoding: 167 174 166
Width: 373
VWidth: 0
Flags: HMW
LayerCount: 2
Fore
SplineSet
306 45 m 0
 237 -24 129 -24 63 44 c 0
 -5 112 -5 218 63 287 c 0
 132 355 238 355 306 288 c 0
 374 220 374 113 306 45 c 0
210 253 m 0
 222 253 237 250 248 239 c 0
 266 221 265 191 249 175 c 0
 242 168 231 161 219 159 c 0
 253 145 260 87 285 87 c 0
 285 77 l 0
 251 77 l 0
 206 76 216 151 178 151 c 0
 169 151 l 0
 169 113 l 0
 168 94 174 87 190 87 c 0
 190 77 l 0
 107 77 l 0
 107 87 l 0
 123 87 129 94 128 113 c 0
 128 217 l 0
 128 238 121 244 107 244 c 0
 107 253 l 0
 210 253 l 0
169 164 m 0
 180 162 201 161 210 171 c 0
 229 190 225 219 210 234 c 0
 204 240 196 242 178 240 c 0
 167 238 169 232 169 226 c 0
 169 164 l 0
88 263 m 0
 32 207 32 122 86 66 c 0
 140 12 227 12 283 68 c 0
 337 124 337 208 283 263 c 0
 228 319 142 319 88 263 c 0
EndSplineSet
EndChar

StartChar: trademark
Encoding: 168 8482 167
Width: 500
VWidth: 0
Flags: HMW
LayerCount: 2
Fore
SplineSet
185 266 m 0
 185 300 175 316 135 316 c 0
 135 162 l 0
 136 140 133 141 165 141 c 0
 165 128 l 0
 49 128 l 0
 49 141 l 0
 75 141 81 141 82 162 c 0
 82 316 l 0
 38 315 35 301 35 266 c 0
 21 266 l 0
 21 331 l 0
 198 331 l 0
 198 266 l 0
 185 266 l 0
264 160 m 0
 264 143 269 141 288 141 c 0
 288 128 l 0
 224 128 l 0
 224 141 l 0
 238 141 249 141 249 160 c 0
 249 306 l 0
 249 320 248 320 230 320 c 0
 230 331 l 0
 306 331 l 0
 359 204 l 0
 415 331 l 0
 485 331 l 0
 485 320 l 0
 462 320 457 315 457 301 c 0
 457 156 l 0
 457 145 459 141 480 141 c 0
 480 128 l 0
 391 128 l 0
 391 141 l 0
 416 141 418 145 418 156 c 0
 418 302 l 0
 344 128 l 0
 338 128 l 0
 264 306 l 0
 264 160 l 0
EndSplineSet
EndChar

StartChar: ordmasculine
Encoding: 169 186 168
Width: 150
VWidth: 0
Flags: HMW
LayerCount: 2
Fore
SplineSet
110 324 m 0
 104 330 89 329 79 319 c 0
 59 299 42 219 51 210 c 0
 57 204 72 205 82 215 c 0
 102 235 119 315 110 324 c 0
40 312 m 0
 65 338 113 348 137 325 c 0
 163 299 146 247 120 221 c 0
 95 195 47 185 23 208 c 0
 -3 234 14 286 40 312 c 0
114 143 m 0
 1 143 l 0
 11 170 l 0
 124 170 l 0
 114 143 l 0
EndSplineSet
EndChar

StartChar: ordfeminine
Encoding: 170 170 169
Width: 133
VWidth: 0
Flags: HMW
LayerCount: 2
Fore
SplineSet
108 319 m 0
 113 335 l 0
 146 335 l 0
 116 231 l 0
 110 212 120 211 138 238 c 0
 145 231 l 0
 105 169 69 197 78 227 c 0
 62 194 26 186 7 205 c 0
 -13 224 -4 275 36 315 c 0
 60 340 102 349 108 319 c 0
97 323 m 0
 93 326 83 327 74 318 c 0
 61 305 27 237 41 222 c 0
 48 215 57 216 66 225 c 0
 88 246 107 313 97 323 c 0
-12 143 m 0
 -2 170 l 0
 111 170 l 0
 101 143 l 0
 -12 143 l 0
EndSplineSet
EndChar

StartChar: numbersign
Encoding: 171 35 170
Width: 250
VWidth: 0
Flags: HMW
LayerCount: 2
Fore
SplineSet
103 197 m 0
 93 138 l 0
 152 138 l 0
 162 197 l 0
 103 197 l 0
124 331 m 0
 108 230 l 0
 167 230 l 0
 183 331 l 0
 219 331 l 0
 203 230 l 0
 248 230 l 0
 248 197 l 0
 198 197 l 0
 188 138 l 0
 234 138 l 0
 234 105 l 0
 183 105 l 0
 166 0 l 0
 130 0 l 0
 147 105 l 0
 88 105 l 0
 71 0 l 0
 35 0 l 0
 52 105 l 0
 2 105 l 0
 2 138 l 0
 57 138 l 0
 66 197 l 0
 16 197 l 0
 16 230 l 0
 72 230 l 0
 88 331 l 0
 124 331 l 0
EndSplineSet
EndChar

StartChar: currency
Encoding: 172 164 171
Width: 250
VWidth: 0
Flags: HMW
LayerCount: 2
Fore
SplineSet
70 126 m 0
 100 97 149 97 178 126 c 0
 208 156 208 205 179 234 c 0
 149 264 102 264 72 234 c 0
 42 204 42 155 70 126 c 0
225 247 m 0
 252 202 252 158 225 113 c 0
 252 86 l 0
 221 55 l 0
 194 82 l 0
 149 51 101 51 56 82 c 0
 29 55 l 0
 -2 86 l 0
 25 113 l 0
 -2 158 -2 202 25 247 c 0
 -2 274 l 0
 29 305 l 0
 56 278 l 0
 101 309 149 309 194 278 c 0
 221 305 l 0
 252 274 l 0
 225 247 l 0
EndSplineSet
EndChar

StartChar: yen
Encoding: 173 165 172
Width: 250
VWidth: 0
Flags: HMW
LayerCount: 2
Fore
SplineSet
201 269 m 0
 222 297 219 320 183 320 c 0
 183 331 l 0
 283 331 l 0
 283 320 l 0
 278 320 264 317 248 296 c 0
 141 153 l 0
 194 153 l 0
 185 125 l 0
 132 125 l 0
 123 91 l 0
 176 91 l 0
 167 63 l 0
 116 63 l 0
 111 43 l 0
 107 26 107 11 140 11 c 0
 145 11 l 0
 145 0 l 0
 -6 0 l 0
 -6 11 l 0
 -1 11 l 0
 25 11 32 19 38 44 c 0
 43 63 l 0
 -7 63 l 0
 0 91 l 0
 51 91 l 0
 60 125 l 0
 10 125 l 0
 18 153 l 0
 68 153 l 0
 34 272 l 0
 23 311 25 320 -4 320 c 0
 -4 331 l 0
 133 331 l 0
 133 320 l 0
 120 320 l 0
 105 320 94 308 101 280 c 0
 131 172 l 0
 201 269 l 0
EndSplineSet
EndChar

StartChar: cent
Encoding: 174 162 173
Width: 250
VWidth: 0
Flags: HMW
LayerCount: 2
Fore
SplineSet
111 29 m 0
 173 206 l 0
 173 211 152 219 133 200 c 0
 108 175 55 34 111 29 c 0
197 223 m 0
 225 207 228 173 213 158 c 0
 204 148 186 148 174 156 c 0
 129 26 l 0
 148 27 173 55 183 71 c 0
 197 61 l 0
 180 29 149 -1 118 -5 c 0
 94 -71 l 0
 76 -71 l 0
 99 -6 l 0
 80 -5 60 1 45 15 c 0
 7 54 27 139 82 194 c 0
 107 219 140 231 181 229 c 0
 201 287 l 0
 219 287 l 0
 197 223 l 0
EndSplineSet
EndChar

StartChar: dollar
Encoding: 175 36 174
Width: 250
VWidth: 0
Flags: HMW
LayerCount: 2
Fore
SplineSet
124 213 m 0
 152 313 l 0
 135 316 119 315 104 300 c 0
 76 272 93 230 124 213 c 0
90 14 m 0
 102 14 126 16 141 31 c 0
 162 54 173 105 124 135 c 0
 90 14 l 0
68 19 m 0
 104 147 l 0
 34 194 19 253 65 300 c 0
 91 326 123 334 157 330 c 0
 165 360 l 0
 189 360 l 0
 180 326 l 0
 198 322 227 309 246 291 c 0
 225 222 l 0
 215 223 l 0
 211 285 207 297 174 307 c 0
 143 198 l 0
 220 145 231 81 180 30 c 0
 159 9 135 -3 86 0 c 0
 71 -51 l 0
 47 -51 l 0
 63 2 l 0
 34 7 5 25 -10 42 c 0
 10 112 l 0
 21 109 l 0
 24 50 33 36 68 19 c 0
EndSplineSet
EndChar

StartChar: less
Encoding: 187 60 186
Width: 285
VWidth: 0
Flags: HMW
LayerCount: 2
Fore
SplineSet
16 147 m 0
 270 261 l 0
 270 213 l 0
 75 126 l 0
 270 40 l 0
 270 -8 l 0
 16 106 l 0
 16 147 l 0
EndSplineSet
EndChar

StartChar: greater
Encoding: 188 62 187
Width: 285
VWidth: 0
Flags: HMW
LayerCount: 2
Fore
SplineSet
270 147 m 0
 270 106 l 0
 16 -8 l 0
 16 40 l 0
 211 126 l 0
 16 213 l 0
 16 261 l 0
 270 147 l 0
EndSplineSet
EndChar

StartChar: mu
Encoding: 189 181 188
Width: 288
VWidth: 0
Flags: HMW
LayerCount: 2
Fore
SplineSet
185 169 m 0
 200 221 l 0
 256 221 l 0
 206 45 l 0
 200 22 220 21 246 63 c 0
 256 55 l 0
 224 -9 176 -16 160 0 c 0
 147 13 145 29 160 74 c 0
 143 41 133 27 119 13 c 0
 95 -11 57 -14 45 7 c 0
 18 -48 33 -80 18 -94 c 0
 4 -108 -13 -107 -20 -99 c 0
 -33 -86 -23 -62 -1 -39 c 0
 13 -24 26 -3 43 52 c 0
 77 172 l 0
 84 199 79 203 50 200 c 0
 50 211 l 0
 83 215 122 222 149 229 c 0
 99 52 l 0
 93 31 109 25 121 37 c 0
 139 55 170 121 185 169 c 0
EndSplineSet
EndChar

StartChar: slash
Encoding: 190 47 189
Width: 139
VWidth: 0
Flags: HMW
LayerCount: 2
Fore
SplineSet
115 341 m 0
 145 341 l 0
 24 -9 l 0
 -6 -9 l 0
 115 341 l 0
EndSplineSet
EndChar

StartChar: backslash
Encoding: 191 92 190
Width: 139
VWidth: 0
Flags: HMW
LayerCount: 2
Fore
SplineSet
1 341 m 0
 46 341 l 0
 233 0 l 0
 188 0 l 0
 1 341 l 0
EndSplineSet
EndChar

StartChar: AE
Encoding: 192 198 191
Width: 472
VWidth: 0
Flags: HMW
LayerCount: 2
Fore
SplineSet
312 18 m 0
 321 18 358 26 384 52 c 0
 400 68 409 84 415 95 c 0
 431 95 l 0
 402 0 l 0
 143 0 l 0
 143 11 l 0
 169 11 176 19 182 44 c 0
 203 123 l 0
 107 123 l 0
 49 47 l 0
 30 23 49 12 73 11 c 0
 73 0 l 0
 -21 0 l 0
 -21 11 l 0
 -11 11 2 23 18 43 c 0
 201 276 l 0
 224 307 216 320 176 320 c 0
 176 331 l 0
 466 331 l 0
 444 232 l 0
 429 232 l 0
 429 267 426 282 414 294 c 0
 402 306 380 313 368 313 c 0
 346 313 l 0
 324 313 324 308 318 287 c 0
 288 181 l 0
 321 181 l 0
 330 181 364 195 374 231 c 0
 391 231 l 0
 355 95 l 0
 342 95 l 0
 343 128 l 0
 343 147 323 163 311 163 c 0
 283 163 l 0
 252 50 l 0
 248 33 248 18 281 18 c 0
 312 18 l 0
123 144 m 0
 209 144 l 0
 255 308 l 0
 249 308 l 0
 123 144 l 0
EndSplineSet
EndChar

StartChar: OE
Encoding: 193 338 192
Width: 472
VWidth: 0
Flags: HMW
LayerCount: 2
Fore
SplineSet
313 163 m 0
 285 163 l 0
 254 50 l 0
 250 33 247 18 280 18 c 0
 352 18 369 35 386 52 c 0
 401 67 410 82 417 95 c 0
 433 95 l 0
 404 0 l 0
 165 0 l 0
 125 -13 79 -10 44 25 c 0
 -18 87 16 211 86 280 c 0
 160 355 235 338 270 331 c 0
 468 331 l 0
 446 232 l 0
 431 232 l 0
 431 268 428 280 414 294 c 0
 400 308 382 313 372 313 c 0
 355 313 l 0
 327 313 328 309 321 295 c 0
 290 181 l 0
 323 181 l 0
 332 181 347 189 360 202 c 0
 369 211 374 219 376 231 c 0
 393 231 l 0
 357 95 l 0
 344 95 l 0
 346 119 346 140 335 151 c 0
 327 159 318 163 313 163 c 0
99 20 m 0
 117 2 172 -6 190 60 c 0
 253 286 l 0
 250 324 205 342 161 297 c 0
 109 246 52 66 99 20 c 0
EndSplineSet
EndChar

StartChar: Eth
Encoding: 194 208 193
Width: 361
VWidth: 0
Flags: HMW
LayerCount: 2
Fore
SplineSet
187 160 m 0
 10 160 l 0
 20 196 l 0
 197 196 l 0
 187 160 l 0
EndSplineSet
Refer: 67 68 N 1 0 0 1 0 0 0
EndChar

StartChar: Thorn
Encoding: 195 222 194
Width: 305
VWidth: 0
Flags: HMW
LayerCount: 2
Fore
SplineSet
147 224 m 0
 114 107 l 0
 142 106 170 103 189 122 c 0
 210 143 228 207 201 234 c 0
 184 251 154 251 147 224 c 0
184 263 m 0
 235 263 250 254 263 242 c 0
 292 214 295 160 257 122 c 0
 219 83 156 87 110 90 c 0
 98 43 l 0
 94 26 94 11 127 11 c 0
 127 0 l 0
 -14 0 l 0
 -14 11 l 0
 12 11 19 19 25 44 c 0
 92 288 l 0
 96 305 96 320 62 320 c 0
 62 331 l 0
 202 331 l 0
 202 320 l 0
 177 320 169 312 163 287 c 0
 157 263 l 0
 184 263 l 0
EndSplineSet
EndChar

StartChar: Eng
Encoding: 196 330 195
Width: 392
VWidth: 0
Flags: HMW
LayerCount: 2
Fore
SplineSet
175 269 m 0
 237 333 310 361 356 315 c 0
 401 270 391 178 361 116 c 0
 348 89 330 63 308 41 c 0
 271 4 209 -24 179 5 c 0
 164 20 167 48 183 63 c 0
 195 75 217 81 228 70 c 0
 242 55 222 22 229 14 c 0
 233 10 242 13 246 17 c 0
 255 26 259 42 265 63 c 0
 308 214 l 0
 318 247 327 287 310 304 c 0
 284 330 235 305 196 266 c 0
 186 256 176 244 165 231 c 0
 116 59 l 0
 111 39 106 26 114 18 c 0
 120 12 132 9 150 9 c 0
 147 0 l 0
 -16 0 l 0
 -13 9 l 0
 4 9 16 12 24 20 c 0
 32 28 36 41 42 59 c 0
 104 271 l 0
 109 289 113 305 105 313 c 0
 98 319 86 321 69 322 c 0
 72 331 l 0
 192 331 l 0
 175 269 l 0
EndSplineSet
EndChar

StartChar: Hbar
Encoding: 197 294 196
Width: 389
VWidth: 0
Flags: HMW
LayerCount: 2
Fore
SplineSet
381 232 m 0
 42 232 l 0
 48 256 l 0
 388 256 l 0
 381 232 l 0
EndSplineSet
Refer: 71 72 N 1 0 0 1 0 0 0
EndChar

StartChar: Lslash
Encoding: 198 321 197
Width: 305
VWidth: 0
Flags: HMW
LayerCount: 2
Fore
SplineSet
15 94 m 0
 24 124 l 0
 224 242 l 0
 215 208 l 0
 15 94 l 0
EndSplineSet
Refer: 75 76 N 1 0 0 1 0 0 0
EndChar

StartChar: Oslash
Encoding: 199 216 198
Width: 361
VWidth: 0
Flags: HMW
LayerCount: 2
Fore
SplineSet
251 314 m 0
 239 328 194 327 166 299 c 0
 116 249 66 98 90 36 c 0
 251 314 l 0
190 32 m 0
 240 82 291 237 265 296 c 0
 104 17 l 0
 129 1 164 7 190 32 c 0
73 6 m 0
 63 12 54 18 46 26 c 0
 -11 82 11 200 88 277 c 0
 148 337 225 345 262 333 c 0
 287 377 l 0
 312 377 l 0
 282 325 l 0
 292 321 301 314 310 305 c 0
 367 249 345 131 268 54 c 0
 208 -6 129 -15 93 -2 c 0
 60 -60 l 0
 35 -60 l 0
 73 6 l 0
EndSplineSet
EndChar

StartChar: cedilla
Encoding: 210 184 209
Width: 166
VWidth: 0
Flags: HMW
LayerCount: 2
Fore
SplineSet
16 -96 m 0
 25 -78 l 0
 53 -92 74 -91 84 -80 c 0
 91 -73 90 -64 83 -57 c 0
 75 -50 62 -49 46 -53 c 0
 40 -45 l 0
 73 3 l 0
 97 3 l 0
 74 -30 l 0
 90 -27 112 -30 124 -42 c 0
 137 -55 138 -76 125 -89 c 0
 103 -111 51 -114 16 -96 c 0
EndSplineSet
EndChar

StartChar: Euro
Encoding: 219 8364 215
Width: 250
VWidth: 0
Flags: HMW
LayerCount: 2
Fore
SplineSet
113 -6 m 0
 86 -6 65 0 51 15 c 0
 24 42 23 94 32 140 c 0
 8 140 l 0
 13 159 l 0
 37 159 l 0
 38 163 l 0
 40 168 41 174 43 180 c 0
 20 180 l 0
 26 199 l 0
 51 199 l 0
 64 229 82 256 104 279 c 0
 140 314 186 337 237 337 c 0
 265 337 275 331 299 316 c 0
 279 243 l 0
 269 243 l 0
 273 267 273 293 259 307 c 0
 240 327 205 318 181 294 c 0
 158 270 138 233 125 199 c 0
 233 199 l 0
 228 180 l 0
 119 180 l 0
 116 173 114 166 112 159 c 0
 221 159 l 0
 215 140 l 0
 107 140 l 0
 96 95 90 45 110 25 c 0
 132 3 176 22 201 47 c 0
 209 55 216 63 225 73 c 0
 234 64 l 0
 225 54 217 45 209 37 c 0
 179 7 152 -6 113 -6 c 0
EndSplineSet
EndChar

StartChar: exclamdown
Encoding: 220 161 216
Width: 194
VWidth: 0
Flags: HMW
LayerCount: 2
Fore
SplineSet
151 166 m 0
 136 151 113 151 98 166 c 0
 84 180 84 204 99 218 c 0
 113 233 137 233 152 218 c 0
 166 204 166 180 151 166 c 0
69 -104 m 0
 54 -119 34 -119 22 -107 c 0
 -15 -70 48 -18 97 124 c 0
 113 119 l 0
 84 -3 91 -82 69 -104 c 0
EndSplineSet
EndChar

StartChar: dotlessj
Encoding: 221 567 217
Width: 139
VWidth: 0
Flags: HMW
LayerCount: 2
Fore
SplineSet
1 -56 m 0
 65 172 l 0
 72 199 67 203 38 200 c 0
 38 211 l 0
 71 215 110 222 137 229 c 0
 62 -36 l 0
 59 -47 49 -68 41 -76 c 0
 14 -103 -44 -113 -68 -88 c 0
 -81 -74 -77 -53 -68 -43 c 0
 -59 -35 -45 -33 -35 -43 c 0
 -19 -60 -32 -72 -32 -77 c 0
 -32 -87 -10 -95 1 -56 c 0
EndSplineSet
EndChar

StartChar: kgreenlandic
Encoding: 222 312 218
Width: 250
VWidth: 0
Flags: HMW
LayerCount: 2
Fore
SplineSet
113 105 m 0
 85 86 l 0
 61 0 l 0
 5 0 l 0
 56 182 l 0
 63 209 58 213 29 210 c 0
 29 221 l 0
 62 225 101 232 128 239 c 0
 93 115 l 0
 199 183 197 210 157 210 c 0
 157 221 l 0
 256 221 l 0
 256 210 l 0
 232 210 216 192 163 139 c 0
 165 112 175 42 188 30 c 0
 195 23 209 29 224 59 c 0
 235 53 l 0
 210 -15 162 -15 145 3 c 0
 126 22 118 64 113 105 c 0
EndSplineSet
EndChar

StartChar: germandbls
Encoding: 223 223 219
Width: 250
VWidth: 0
Flags: HMW
LayerCount: 2
Fore
SplineSet
6 -4 m 0
 63 227 l 0
 70 257 86 291 109 314 c 0
 152 356 211 342 235 318 c 0
 254 300 255 252 226 224 c 0
 208 206 185 196 164 189 c 0
 178 186 196 180 208 168 c 0
 251 125 214 48 188 22 c 0
 152 -15 114 -13 87 2 c 0
 96 20 l 0
 108 12 120 4 137 21 c 0
 153 36 187 145 156 176 c 0
 151 181 142 182 136 182 c 0
 140 200 l 0
 149 200 164 205 172 213 c 0
 189 230 201 307 186 322 c 0
 179 328 163 329 150 316 c 0
 142 309 136 292 123 243 c 0
 66 13 l 0
 58 -20 42 -54 20 -76 c 0
 -12 -108 -55 -108 -75 -89 c 0
 -87 -76 -87 -51 -77 -40 c 0
 -66 -30 -51 -30 -41 -41 c 0
 -24 -58 -43 -73 -43 -80 c 0
 -43 -88 -34 -92 -22 -80 c 0
 -11 -68 -7 -59 6 -4 c 0
EndSplineSet
EndChar

StartChar: ae
Encoding: 224 230 220
Width: 361
VWidth: 0
Flags: HMW
LayerCount: 2
Fore
SplineSet
212 106 m 0
 241 118 262 121 279 138 c 0
 298 157 304 198 295 208 c 0
 285 218 262 209 252 199 c 0
 235 182 219 143 212 106 c 0
324 135 m 0
 297 108 250 94 207 88 c 0
 203 68 204 45 216 32 c 0
 237 12 278 32 303 71 c 0
 316 61 l 0
 274 -16 199 -21 166 13 c 0
 155 24 150 44 150 57 c 0
 144 45 135 32 123 21 c 0
 89 -14 44 -13 25 6 c 0
 -7 39 6 132 66 191 c 0
 115 241 177 240 188 201 c 0
 194 223 l 0
 243 223 l 0
 235 202 l 0
 259 234 308 237 330 215 c 0
 349 196 348 159 324 135 c 0
167 202 m 0
 158 211 142 211 128 197 c 0
 91 161 53 59 75 38 c 0
 84 29 109 29 127 47 c 0
 146 65 153 88 160 110 c 0
 173 151 l 0
 179 174 177 192 167 202 c 0
EndSplineSet
EndChar

StartChar: oe
Encoding: 225 339 221
Width: 361
VWidth: 0
Flags: HMW
LayerCount: 2
Fore
SplineSet
127 26 m 0
 152 50 191 185 169 207 c 0
 158 217 137 213 121 198 c 0
 87 164 58 34 76 15 c 0
 87 5 110 8 127 26 c 0
165 18 m 0
 127 -9 68 -20 34 13 c 0
 -10 58 23 148 63 188 c 0
 112 237 190 244 218 200 c 0
 253 228 303 241 329 216 c 0
 350 195 349 162 325 139 c 0
 304 118 269 100 215 88 c 0
 211 69 210 47 225 33 c 0
 243 15 279 29 304 71 c 0
 317 61 l 0
 269 -24 193 -18 165 18 c 0
220 106 m 0
 246 114 262 125 277 140 c 0
 297 160 306 196 296 206 c 0
 290 212 273 210 259 196 c 0
 244 180 227 140 220 106 c 0
EndSplineSet
EndChar

StartChar: eth
Encoding: 226 240 222
Width: 250
VWidth: 0
Flags: HMW
LayerCount: 2
Fore
SplineSet
124 23 m 0
 161 59 187 189 171 206 c 0
 160 216 137 213 123 199 c 0
 86 163 60 33 76 16 c 0
 87 6 110 9 124 23 c 0
165 300 m 0
 230 320 l 0
 250 284 l 0
 226 277 l 0
 219 282 l 0
 188 273 l 0
 253 189 246 96 183 33 c 0
 139 -10 69 -21 36 13 c 0
 -8 57 21 145 65 189 c 0
 97 221 138 230 163 229 c 0
 160 238 152 252 146 260 c 0
 82 241 l 0
 62 277 l 0
 86 284 l 0
 93 279 l 0
 123 287 l 0
 107 302 88 316 71 327 c 0
 100 343 l 0
 121 335 144 319 165 300 c 0
EndSplineSet
EndChar

StartChar: thorn
Encoding: 227 254 223
Width: 250
VWidth: 0
Flags: HMW
LayerCount: 2
Fore
SplineSet
74 26 m 0
 79 11 98 -1 125 26 c 0
 151 51 189 168 172 185 c 0
 149 208 113 169 103 133 c 0
 74 26 l 0
67 3 m 0
 50 -59 l 0
 45 -80 45 -91 78 -91 c 0
 78 -102 l 0
 -40 -102 l 0
 -40 -91 l 0
 -16 -91 -13 -82 -6 -58 c 0
 89 284 l 0
 96 311 91 315 62 312 c 0
 62 323 l 0
 95 327 134 334 161 341 c 0
 117 183 l 0
 150 234 197 239 220 216 c 0
 256 181 232 82 175 25 c 0
 142 -8 91 -15 67 3 c 0
EndSplineSet
EndChar

StartChar: eng
Encoding: 228 331 224
Width: 270
VWidth: 0
Flags: HMW
LayerCount: 2
Fore
SplineSet
88 72 m 0
 68 0 l 0
 6 0 l 0
 51 156 l 0
 56 173 61 190 55 197 c 0
 51 200 44 202 33 202 c 0
 36 212 l 0
 118 226 l 0
 133 226 l 0
 102 121 l 0
 120 148 139 178 159 198 c 0
 184 223 218 240 238 220 c 0
 252 206 248 184 242 162 c 0
 203 30 l 0
 188 -18 172 -56 148 -80 c 0
 120 -108 67 -119 44 -96 c 0
 34 -86 36 -72 45 -63 c 0
 54 -54 74 -51 83 -61 c 0
 96 -76 74 -89 79 -94 c 0
 83 -98 92 -95 98 -90 c 0
 109 -79 114 -55 124 -24 c 0
 179 159 l 0
 182 169 185 178 181 182 c 0
 175 188 162 180 150 169 c 0
 130 148 105 107 88 72 c 0
EndSplineSet
EndChar

StartChar: oslash
Encoding: 231 248 227
Width: 250
VWidth: 0
Flags: HMW
LayerCount: 2
Fore
SplineSet
71 36 m 0
 166 210 l 0
 154 214 137 213 123 199 c 0
 88 162 69 69 71 36 c 0
79 14 m 0
 91 7 111 9 125 23 c 0
 162 59 181 176 175 190 c 0
 79 14 l 0
52 1 m 0
 -17 42 21 145 65 189 c 0
 99 223 143 232 177 228 c 0
 204 278 l 0
 224 278 l 0
 193 223 l 0
 266 182 228 77 184 33 c 0
 154 2 103 -13 69 -5 c 0
 39 -59 l 0
 19 -59 l 0
 52 1 l 0
EndSplineSet
EndChar

StartChar: ccedilla
Encoding: 234 231 230
Width: 222
VWidth: 0
Flags: HMW
LayerCount: 2
Fore
SplineSet
68 -5 m 0
 57 -4 43 4 35 12 c 0
 0 47 4 126 68 190 c 0
 116 238 173 235 195 215 c 0
 212 197 213 170 200 158 c 0
 191 148 169 147 158 158 c 0
 139 178 167 198 157 208 c 0
 150 215 133 210 123 200 c 0
 89 167 60 62 84 38 c 0
 106 16 142 25 172 71 c 0
 186 61 l 0
 166 22 130 -4 90 -7 c 0
 74 -30 l 0
 90 -27 112 -30 124 -42 c 0
 137 -55 138 -76 125 -89 c 0
 103 -111 51 -114 16 -96 c 0
 25 -78 l 0
 53 -92 74 -91 84 -80 c 0
 91 -73 90 -64 83 -57 c 0
 75 -50 62 -49 46 -53 c 0
 40 -45 l 0
 68 -5 l 0
EndSplineSet
EndChar

StartChar: ogonek
Encoding: 242 731 238
Width: 166
VWidth: 0
Flags: HMW
LayerCount: 2
Fore
SplineSet
85 -4 m 0
 70 -14 56 -34 65 -47 c 0
 75 -63 88 -56 110 -36 c 0
 117 -30 126 -46 120 -52 c 0
 100 -72 84 -78 67 -79 c 0
 43 -76 27 -55 35 -31 c 0
 40 -19 47 -13 57 -4 c 0
 85 -4 l 0
EndSplineSet
EndChar

StartChar: dcroat
Encoding: 250 273 243
Width: 250
VWidth: 0
Flags: HMW
LayerCount: 2
Fore
SplineSet
276 254 m 0
 144 254 l 0
 150 277 l 0
 283 277 l 0
 276 254 l 0
EndSplineSet
Refer: 99 100 N 1 0 0 1 0 0 0
EndChar

StartChar: florin
Encoding: 251 402 244
Width: 250
VWidth: 0
Flags: HMW
LayerCount: 2
Fore
SplineSet
161 201 m 0
 216 201 l 0
 210 184 l 0
 159 184 l 0
 152 114 150 81 136 20 c 0
 126 -15 107 -60 79 -80 c 0
 55 -100 19 -93 8 -78 c 0
 2 -70 0 -53 7 -43 c 0
 16 -30 35 -30 43 -42 c 0
 47 -48 47 -60 38 -70 c 0
 38 -75 36 -78 41 -79 c 0
 66 -82 75 -55 78 -15 c 0
 85 50 91 113 99 184 c 0
 50 184 l 0
 56 201 l 0
 102 201 l 0
 109 246 116 285 143 312 c 0
 169 341 226 340 240 315 c 0
 246 305 245 295 237 284 c 0
 230 275 218 274 206 282 c 0
 197 291 200 302 208 313 c 0
 208 319 199 325 184 310 c 0
 172 296 166 251 161 201 c 0
EndSplineSet
EndChar

StartChar: questiondown
Encoding: 252 191 245
Width: 250
VWidth: 0
Flags: HMW
LayerCount: 2
Fore
SplineSet
122 31 m 0
 64 -26 72 -78 89 -95 c 0
 104 -109 138 -98 138 -81 c 0
 138 -72 114 -45 133 -27 c 0
 144 -15 165 -15 176 -27 c 0
 190 -41 188 -71 166 -93 c 0
 138 -121 68 -126 33 -91 c 0
 7 -65 9 -16 43 18 c 0
 69 44 97 47 128 78 c 0
 139 89 148 112 150 124 c 0
 163 119 l 0
 161 92 150 58 122 31 c 0
199 218 m 0
 213 204 213 180 198 166 c 0
 183 151 160 151 145 166 c 0
 131 180 131 204 146 218 c 0
 160 233 184 233 199 218 c 0
EndSplineSet
EndChar

StartChar: dotlessi
Encoding: 253 305 246
Width: 139
VWidth: 0
Flags: HMW
LayerCount: 2
Fore
SplineSet
71 45 m 0
 62 13 100 31 120 70 c 0
 130 62 l 0
 95 -13 37 -14 23 0 c 0
 12 11 11 29 17 51 c 0
 51 172 l 0
 58 199 53 203 24 200 c 0
 24 211 l 0
 57 215 96 222 123 229 c 0
 71 45 l 0
EndSplineSet
EndChar

StartChar: fi
Encoding: 254 64257 247
Width: 278
VWidth: 0
Flags: HMW
LayerCount: 2
Fore
SplineSet
115 305 m 0
 165 355 235 345 257 322 c 0
 272 309 273 283 260 270 c 0
 250 260 231 260 223 268 c 0
 204 287 222 309 222 315 c 0
 222 327 193 338 167 312 c 0
 150 295 135 260 124 216 c 0
 172 216 l 0
 198 216 236 219 261 222 c 0
 214 45 l 0
 205 13 234 27 259 70 c 0
 269 62 l 0
 231 -16 180 -14 166 0 c 0
 155 11 154 29 160 51 c 0
 198 195 l 0
 119 195 l 0
 71 12 l 0
 63 -18 50 -52 27 -75 c 0
 -8 -111 -51 -107 -69 -89 c 0
 -83 -75 -82 -50 -71 -39 c 0
 -63 -31 -47 -30 -36 -41 c 0
 -19 -59 -38 -71 -38 -83 c 0
 -38 -87 -28 -92 -16 -80 c 0
 -7 -71 -1 -66 16 -4 c 0
 62 195 l 0
 28 195 l 0
 28 216 l 0
 67 216 l 0
 74 242 91 281 115 305 c 0
EndSplineSet
EndChar

StartChar: fl
Encoding: 255 64258 248
Width: 278
VWidth: 0
Flags: HMW
LayerCount: 2
Fore
SplineSet
169 318 m 0
 148 297 136 272 128 242 c 0
 121 216 l 0
 201 216 l 0
 216 274 l 0
 197 290 214 310 214 316 c 0
 214 329 185 334 169 318 c 0
65 216 m 0
 79 262 94 289 120 314 c 0
 145 340 195 348 237 335 c 0
 289 341 l 0
 212 48 l 0
 204 22 227 24 253 67 c 0
 265 59 l 0
 232 -6 179 -17 162 0 c 0
 151 11 151 29 157 53 c 0
 195 195 l 0
 116 195 l 0
 68 13 l 0
 60 -18 49 -52 25 -75 c 0
 -10 -111 -47 -107 -65 -89 c 0
 -79 -75 -78 -50 -67 -39 c 0
 -59 -31 -43 -30 -32 -41 c 0
 -15 -59 -34 -71 -34 -83 c 0
 -34 -87 -27 -92 -14 -79 c 0
 -3 -64 6 -27 12 -4 c 0
 59 195 l 0
 25 195 l 0
 25 216 l 0
 65 216 l 0
EndSplineSet
EndChar

StartChar: igrave
Encoding: 375 236 364
Width: 139
VWidth: 0
Flags: HMW
LayerCount: 2
Fore
SplineSet
71 45 m 0
 62 13 100 31 120 70 c 0
 130 62 l 0
 95 -13 37 -14 23 0 c 0
 12 11 11 29 17 51 c 0
 51 172 l 0
 58 199 53 203 24 200 c 0
 24 211 l 0
 57 215 96 222 123 229 c 0
 71 45 l 0
EndSplineSet
Refer: 95 96 N 1 0 0 1 -29 0 0
EndChar

